<svg xmlns="http://www.w3.org/2000/svg" width="21.6" height="16.22" viewBox="0 0 21.6 16.22"><defs><style>.cls-1{fill-rule:evenodd;opacity:.75}</style></defs><path id="custom.svg" class="cls-1" d="M1597.11 1282.52a1.39 1.39 0 1 1 1.4-1.39 1.4 1.4 0 0 1-1.4 1.39m14.56-1.88h-11.84a.487.487 0 0 0-.33.13 2.419 2.419 0 0 0-4.76-.12c-.02 0-.04-.01-.06-.01h-3.08a.514.514 0 0 0-.52.51.508.508 0 0 0 .52.51h3.08c.03 0 .05-.01.07-.01a2.422 2.422 0 0 0 4.75-.12.487.487 0 0 0 .33.13h12.35a.508.508 0 0 0 .52-.51.514.514 0 0 0-.52-.51h-.51zm.51 6.15h-2.91a2.413 2.413 0 0 0-4.8 0h-12.87a.51.51 0 1 0 0 1.02h12.99a2.4 2.4 0 0 0 4.56 0h3.03a.51.51 0 1 0 0-1.02zm-5.31 1.63a1.385 1.385 0 1 1 1.39-1.38 1.394 1.394 0 0 1-1.39 1.38zm5.83 4a.514.514 0 0 0-.52-.51h-12.35a.513.513 0 0 0-.34.13 2.417 2.417 0 0 0-4.71-.11.355.355 0 0 0-.1-.02h-3.08a.51.51 0 1 0 0 1.02h3.08a.075.075 0 0 0 .05-.01 2.416 2.416 0 0 0 4.78-.11.526.526 0 0 0 .32.12h12.35a.514.514 0 0 0 .52-.51zm-15.59 1.49a1.385 1.385 0 1 1 1.4-1.39 1.393 1.393 0 0 1-1.4 1.39z" transform="translate(-1591.09 -1278.72)"/></svg>