<svg xmlns="http://www.w3.org/2000/svg" width="21.63" height="19.47" viewBox="0 0 21.63 19.47"><defs><style>.cls-1{fill-rule:evenodd;opacity:.75}</style></defs><path id="dashboard.svg" class="cls-1" d="M1611.13 1234.52h-3.83a.483.483 0 0 0-.47.5v10.43h-1.65v-16.06a.48.48 0 0 0-.47-.49h-3.86a.48.48 0 0 0-.47.49v16.08h-1.65v-7.76a.474.474 0 0 0-.47-.49h-3.86a.474.474 0 0 0-.47.49v7.76h-1.05a.489.489 0 0 1-.29-.1.769.769 0 0 1-.16-.55v-17.52a.474.474 0 0 0-.47-.49h-1.49a.5.5 0 0 0 0 .99h1.02v2.22h-1.02a.5.5 0 0 0 0 .99h1.02v2.22h-1.02a.5.5 0 0 0 0 .99h1.02v2.22h-1.02a.5.5 0 0 0 0 .99h1.02v2.22h-1.02a.5.5 0 0 0 0 .99h1.02v2.22h-1.02a.5.5 0 0 0 0 .99h1.02v.77a1.732 1.732 0 0 0 .47 1.31 1.386 1.386 0 0 0 .92.36h18.27a.482.482 0 0 0 .48-.49v-10.76a.533.533 0 0 0-.5-.52zm-16.23 10.95v-7.27h2.86v7.25h-2.86v.02zm6.45 0v-15.58h2.86v15.56h-2.86v.02zm6.45 0v-9.93h2.86v9.93h-2.86z" transform="translate(-1590 -1226.81)"/></svg>