<svg xmlns="http://www.w3.org/2000/svg" width="47.15" height="35.88" viewBox="0 0 47.15 35.88"><defs><style>.cls-1{fill:#555;fill-rule:evenodd}</style></defs><path id="mail.svg" class="cls-1" d="M2172.06 1280.58a1.12 1.12 0 1 0 0 2.24H2196a1.12 1.12 0 1 0 0-2.24h-23.94zm0 4.48a1.12 1.12 0 1 0 0 2.24H2196a1.12 1.12 0 1 0 0-2.24h-23.94zm-4.42.12a7.238 7.238 0 0 0-7.23 7.19v17.48c0 4.13 3.71 6.58 7.6 6.58h32.72c3.95 0 6.83-2.58 6.83-6.58v-17.48a6.959 6.959 0 0 0-6.97-7.19 1.256 1.256 0 0 0-1.27 1.12 1.208 1.208 0 0 0 1.22 1.12 4.684 4.684 0 0 1 3.81 1.96l-17.54 11.11a4.978 4.978 0 0 1-4.82.05l-18.19-11.3a5.018 5.018 0 0 1 3.88-1.82 1.03 1.03 0 0 0 1.01-1.12 1.061 1.061 0 0 0-1.05-1.12zm4.42 4.36a1.12 1.12 0 1 0 0 2.24H2196a1.12 1.12 0 1 0 0-2.24h-23.94zm-9.27 1.71l18.06 11.22a7.125 7.125 0 0 0 3.48.89 7.326 7.326 0 0 0 3.65-.96l17.26-10.92a5.176 5.176 0 0 1 .07.89v17.48c0 2.76-1.87 4.34-4.58 4.34h-32.72c-2.73 0-5.36-1.65-5.36-4.34v-17.48a5.125 5.125 0 0 1 .14-1.12z" transform="translate(-2160.41 -1280.56)"/></svg>