<svg xmlns="http://www.w3.org/2000/svg" width="22.69" height="19.47" viewBox="0 0 22.69 19.47"><defs><style>.cls-1{fill-rule:evenodd;opacity:.75}</style></defs><path id="report.svg" class="cls-1" d="M1610.3 1178.23a2.236 2.236 0 0 0-1.73 3.67l-4.13 5.46a2.37 2.37 0 0 0-.9-.19 2.164 2.164 0 0 0-1.43.52l-3.25-2.45a2.025 2.025 0 0 0 .19-.92 2.255 2.255 0 1 0-2.25 2.23 2.183 2.183 0 0 0 1.43-.52l3.24 2.45a2 2 0 0 0-.19.92 2.255 2.255 0 1 0 3.99-1.44l4.13-5.49a2.37 2.37 0 0 0 .9.19 2.215 2.215 0 1 0 0-4.43zm-14.69 6.06a1.24 1.24 0 1 1 1.24 1.22 1.223 1.223 0 0 1-1.24-1.22zm7.93 6.31a1.225 1.225 0 1 1 1.23-1.23 1.231 1.231 0 0 1-1.23 1.23zm6.76-8.95a1.22 1.22 0 1 1 1.24-1.22 1.221 1.221 0 0 1-1.24 1.22zm2.4 13.32a.493.493 0 0 1-.5.49h-19.17a1.463 1.463 0 0 1-.97-.35 1.683 1.683 0 0 1-.49-1.31v-.76h-1.07a.487.487 0 0 1-.5-.49.493.493 0 0 1 .5-.49h1.07v-2.2h-1.07a.49.49 0 1 1 0-.98h1.07v-2.2h-1.07a.49.49 0 1 1 0-.98h1.07v-2.2h-1.07a.49.49 0 1 1 0-.98h1.07v-2.2h-1.07a.49.49 0 1 1 0-.98h1.07v-2.36h-1.07a.49.49 0 1 1 0-.98h1.56a.493.493 0 0 1 .5.49v17.34a.729.729 0 0 0 .16.54.6.6 0 0 0 .33.11h19.15a.493.493 0 0 1 .5.49z" transform="translate(-1590 -1176)"/></svg>