<?xml version="1.0" standalone="no"?>
<!DOCTYPE svg PUBLIC "-//W3C//DTD SVG 1.1//EN" "http://www.w3.org/Graphics/SVG/1.1/DTD/svg11.dtd" >
<svg xmlns="http://www.w3.org/2000/svg">
<metadata>Generated by IcoMoon</metadata>
<defs>
<font id="icomoon" horiz-adv-x="1024">
<font-face units-per-em="1024" ascent="960" descent="-64" />
<missing-glyph horiz-adv-x="1024" />
<glyph unicode="&#x20;" horiz-adv-x="512" d="" />
<glyph unicode="&#xe900;" glyph-name="Shape-995" horiz-adv-x="1317" d="M1316.571 693.76c-0.383 147.14-119.751 266.272-266.944 266.272-115.986 0-214.696-73.972-251.524-177.313l-0.58-1.865c1.024 4.349 1.835 8.777 3.045 13.059h-614.506c-62.73-0.13-118.178-31.19-151.921-78.735l-0.389-0.578c-21.11-29.555-33.752-66.419-33.752-106.236 0-0.012 0-0.024 0-0.036v0.002-486.799c0.28-102.526 83.457-185.53 186.022-185.53 0.014 0 0.029 0 0.043 0h805.407c0.012 0 0.026 0 0.041 0 102.564 0 185.742 83.005 186.022 185.503v338.639c83.352 46.027 138.9 133.32 139.038 233.599v0.019zM186.049 740.891h600.955c-2.829-14.473-4.447-31.116-4.447-48.137 0-72.779 29.589-138.646 77.394-186.23l0.010-0.010-177.218-176.74c-24.077-23.991-57.294-38.824-93.975-38.824s-69.898 14.833-93.979 38.828l0.004-0.004-386.713 385.662c21.56 15.896 48.65 25.44 77.97 25.44 0.005 0 0.009 0 0.014 0h-0.001zM1124.379 121.543v0c-0.189-73.245-59.609-132.548-132.88-132.548-0.010 0-0.019 0-0.029 0h-805.408c-73.266 0.007-132.678 59.308-132.867 132.53v486.75c0.015 25.119 7.083 48.585 19.33 68.527l-0.326-0.571 384.997-383.96c33.705-33.589 80.206-54.356 131.557-54.356s97.853 20.767 131.563 54.362l-0.005-0.005 180.783 180.304c41.589-28.259 92.908-45.118 148.165-45.118 26.777 0 52.628 3.959 77.002 11.323l-1.882-0.489v-316.748zM1049.573 467.23c-124.863 0.325-225.958 101.621-225.958 226.529 0 125.109 101.421 226.53 226.53 226.53s226.53-101.421 226.53-226.529v0c-0.31-125.176-101.856-226.53-227.075-226.53-0.010 0-0.019 0-0.029 0h0.002z" />
<glyph unicode="&#xe901;" glyph-name="substitution" d="M512 960c-282.77 0-512-229.23-512-512s229.23-512 512-512c282.77 0 512 229.23 512 512v0c-0.326 282.639-229.362 511.674-511.969 512h-0.031zM512-23.040c-260.148 0-471.040 210.892-471.040 471.040s210.892 471.040 471.040 471.040c260.148 0 471.040-210.892 471.040-471.040v0c-0.326-260.017-211.023-470.714-471.009-471.040h-0.031zM690.299 667.3c-3.729 3.857-8.95 6.252-14.731 6.252-11.311 0-20.48-9.169-20.48-20.48 0-5.781 2.395-11.002 6.247-14.725l46.946-46.987h-442.040c-11.311 0-20.48-9.169-20.48-20.48s9.169-20.48 20.48-20.48v0h442.081l-46.981-46.981c-3.557-3.679-5.749-8.697-5.749-14.228 0-11.311 9.169-20.48 20.48-20.48 5.53 0 10.549 2.192 14.233 5.755l81.914 81.914c3.705 3.706 5.996 8.825 5.996 14.479s-2.291 10.773-5.996 14.479v0zM757.76 345.6h-442.122l46.981 46.94c3.702 3.707 5.992 8.826 5.992 14.479 0 11.317-9.174 20.491-20.491 20.491-5.664 0-10.791-2.298-14.5-6.012v0l-81.92-81.92c-3.705-3.706-5.996-8.825-5.996-14.479s2.291-10.773 5.996-14.479l81.92-81.92c3.709-3.714 8.836-6.012 14.5-6.012 11.317 0 20.491 9.174 20.491 20.491 0 5.653-2.289 10.772-5.992 14.48v0l-46.981 46.981h442.122c11.311 0 20.48 9.169 20.48 20.48s-9.169 20.48-20.48 20.48v0z" />
<glyph unicode="&#xe902;" glyph-name="Archived-Vesions" horiz-adv-x="1317" d="M398.852 959.982c-20.187-0.951-35.802-18.102-34.851-38.289 0.933-20.205 18.084-35.82 38.271-34.851h511.982c20.187-0.293 36.79 15.853 37.064 36.040 0.311 20.205-15.835 36.808-36.058 37.1h-512.987c-1.134 0.037-2.286 0.037-3.419 0zM307.427 777.131c-20.187-0.951-35.802-18.102-34.851-38.289s18.084-35.802 38.289-34.851h694.832c20.187-0.293 36.79 15.853 37.064 36.040 0.311 20.205-15.835 36.808-36.058 37.1h-695.856c-1.134 0.037-2.286 0.037-3.419 0zM32.584 594.829c-18.852-2.048-32.986-18.194-32.584-37.119v-511.982c0-60.14 49.553-109.71 109.71-109.71h1097.104c60.14 0 109.71 49.571 109.71 109.71v511.982c0.274 20.187-15.853 36.79-36.076 37.082-20.187 0.293-36.808-15.853-37.064-36.058-0.018-0.329-0.018-0.695 0-1.024v-511.982c0-20.9-15.689-36.57-36.57-36.57h-1097.104c-20.9 0-36.57 15.67-36.57 36.57v511.982c0.439 20.187-15.579 36.899-35.784 37.356-1.573 0.018-3.182-0.037-4.772-0.238zM161.146 594.28c-20.187-0.951-35.802-18.102-34.851-38.289 0.933-20.205 18.084-35.82 38.271-34.851h987.393c20.187-0.293 36.79 15.853 37.064 36.040 0.311 20.205-15.835 36.808-36.058 37.1h-988.399c-1.134 0.037-2.286 0.037-3.419 0zM453.14 448.549c-18.834-2.066-32.986-18.194-32.566-37.137v-36.57c0-39.898 33.261-73.14 73.14-73.14h329.131c39.88 0 73.14 33.242 73.14 73.14v36.57c0.274 20.187-15.853 36.79-36.076 37.082-20.187 0.293-36.808-15.853-37.064-36.058-0.018-0.347-0.018-0.695 0-1.042v-36.57h-329.149v36.57c0.439 20.187-15.579 36.899-35.784 37.356-1.573 0.055-3.182 0-4.772-0.201z" />
<glyph unicode="&#xe903;" glyph-name="Foward" horiz-adv-x="1079" d="M530.937 684.362v246.882c0.093 11.291 6.555 21.052 15.966 25.874l0.165 0.077c3.39 1.677 7.381 2.658 11.602 2.658 6.88 0 13.15-2.607 17.879-6.886l-0.023 0.020 493.764-458.696c5.326-5.464 8.732-12.821 9.115-20.969l0.003-0.072c-0.193-8.256-3.645-15.67-9.113-21.036l-0.005-0.005-493.063-475.529c-4.787-4.523-11.261-7.304-18.386-7.304-4.013 0-7.82 0.882-11.237 2.463l0.166-0.069c-9.96 4.599-16.762 14.472-16.833 25.941v281.258c-210.411-2.805-324.734-42.784-479.036-327.54-4.866-8.319-13.691-13.859-23.823-14.027h-0.024c-0.449-0.027-0.974-0.043-1.502-0.043-2.205 0-4.347 0.271-6.394 0.783l0.181-0.038c-11.514 3.669-19.708 14.27-19.708 26.784 0 0.694 0.025 1.382 0.075 2.063l-0.005-0.091c0 7.014 31.562 693.655 530.236 717.501zM70.137 90.301c47.264 77.050 109.955 140.189 184.187 186.582l2.378 1.386c74.266 37.483 161.879 59.434 254.619 59.434 16.533 0 32.903-0.698 49.082-2.065l-2.112 0.144c15.193-0.387 27.362-12.795 27.362-28.046 0-0.25-0.003-0.498-0.010-0.747l0.001 0.037v-244.077l425.731 409.6-425.731 395.573v-211.112c0.006-0.211 0.009-0.46 0.009-0.71 0-15.251-12.169-27.659-27.327-28.046l-0.036-0.001c-197.085 0-340.866-109.414-428.537-326.838-24.859-60.316-45.543-131.191-58.665-204.685l-0.951-6.428z" />
<glyph unicode="&#xe904;" glyph-name="History" d="M800 608c-17.696 0-32 14.336-32 32v175.904c0 26.528 21.568 48.096 48.096 48.096h175.904c17.696 0 32-14.336 32-32s-14.304-32-32-32h-160v-160c0-17.664-14.304-32-32-32zM512-64c-282.304 0-512 229.696-512 512s229.696 512 512 512c17.664 0 32-14.336 32-32s-14.336-32-32-32c-247.040 0-448-200.96-448-448s200.96-448 448-448c247.040 0 448 200.96 448 448 0 119.68-46.592 232.16-131.232 316.768-12.544 12.48-12.544 32.736 0 45.248 12.512 12.512 32.704 12.512 45.248 0 96.736-96.672 149.984-225.248 149.984-362.016 0-282.304-229.696-512-512-512zM672 416h-160c-17.664 0-32 14.336-32 32v256c0 17.664 14.336 32 32 32s32-14.336 32-32v-224h128c17.696 0 32-14.336 32-32s-14.304-32-32-32z" />
<glyph unicode="&#xe905;" glyph-name="Open" horiz-adv-x="1402" d="M1361.526 865.347c-12.213 17.371-26.784 32.922-43.332 46.148-37.921 30.28-85.825 48.505-137.969 48.505h-958.741c-52.16 0-100.063-18.225-137.953-48.505-16.548-13.226-31.166-28.761-43.363-46.148-25.218-35.96-40.168-79.671-40.168-126.831v-581.032c0-122.148 99.367-221.484 221.484-221.484h958.757c122.133 0 221.484 99.336 221.484 221.484v581.032c-0.016 47.176-14.966 90.872-40.199 126.831zM221.484 896.719h958.757c34.662 0 66.714-11.359 92.818-30.359l-460.339-460.323c-29.885-29.9-69.593-46.353-111.897-46.353-42.209 0-81.965 16.453-111.818 46.353l-460.339 460.323c26.103 19.016 58.124 30.359 92.818 30.359zM1338.428 157.5c0-87.249-70.97-158.203-158.203-158.203h-958.741c-87.217 0-158.203 70.954-158.203 158.203v581.016c0 29.663 8.369 57.349 22.639 81.126l458.33-458.361c41.829-41.86 97.437-64.895 156.558-64.895 59.168 0 114.824 23.034 156.637 64.895l458.33 458.345c14.286-23.778 22.67-51.463 22.67-81.126l-0.016-581z" />
<glyph unicode="&#xe906;" glyph-name="Reply-to-all" horiz-adv-x="1349" d="M542.215-31.744c7.651 0 15.274 3.072 20.878 9.131 10.667 11.534 9.984 29.525-1.536 40.191l-490.845 454.55 490.447 438.209c11.719 10.453 12.729 28.444 2.261 40.163s-28.458 12.714-40.163 2.261l-513.771-459.044c-5.959-5.333-9.415-12.942-9.486-20.949s3.243-15.687 9.116-21.12l513.771-475.798c5.475-5.063 12.402-7.595 19.328-7.595zM796.433 684.377v247.165c0 11.221-6.585 21.376-16.81 25.955-10.268 4.579-22.229 2.716-30.577-4.75l-513.785-459.016c-5.973-5.333-9.429-12.956-9.486-20.963-0.071-8.007 3.243-15.687 9.116-21.12l513.771-475.798c8.291-7.694 20.352-9.756 30.72-5.191 10.368 4.508 17.052 14.748 17.052 26.055v281.241c219.816-2.745 338.626-42.851 499.677-327.519 5.148-9.102 14.706-14.45 24.761-14.45 2.574 0 5.191 0.341 7.765 1.067 12.629 3.584 21.162 15.346 20.65 28.458-0.27 7.097-32.896 694.618-552.853 718.866zM1276.555 89.513c-63.132 91.049-125.282 150.81-194.116 188.086-88.76 48.056-182.497 57.457-314.435 57.457-15.701 0-28.444-12.743-28.444-28.444v-244.775l-443.059 410.305 443.045 395.856v-211.396c0-15.701 12.743-28.444 28.444-28.444 205.238 0 355.622-110.121 446.984-327.306 31.559-75.050 50.403-150.697 61.581-211.339z" />
<glyph unicode="&#xe907;" glyph-name="Reply" horiz-adv-x="1079" d="M548.847 684.173v247.051c0.003 0.165 0.005 0.359 0.005 0.553 0 11.174-6.528 20.823-15.979 25.342l-0.169 0.073c-3.302 1.662-7.196 2.636-11.318 2.636-7.097 0-13.519-2.886-18.159-7.548l-0.001-0.001-493.401-458.308c-5.623-5.41-9.115-12.999-9.115-21.404 0-8.057 3.209-15.364 8.42-20.713l-0.006 0.006 493.401-475.855c4.668-4.638 11.1-7.504 18.202-7.504 4.103 0 7.982 0.957 11.427 2.659l-0.151-0.067c9.986 4.297 16.85 14.051 16.85 25.409 0 0.197-0.002 0.393-0.006 0.589v-0.029 280.74c211.257-2.807 324.957-42.813 480.066-327.062 4.586-8.716 13.521-14.591 23.843-14.739h0.020c2.555 0.14 4.949 0.643 7.192 1.459l-0.173-0.055c11.879 3.668 20.361 14.55 20.361 27.414 0 0.232-0.003 0.464-0.008 0.694l0.001-0.034c-0.702 7.72-31.583 694.832-531.301 718.695zM1009.963 89.705c-47.296 77.102-110.030 140.285-184.313 186.709l-2.38 1.387c-74.77 37.431-162.905 59.342-256.157 59.342-16.063 0-31.974-0.65-47.708-1.925l2.069 0.135c-15.204-0.387-27.381-12.804-27.381-28.065 0-0.25 0.003-0.499 0.010-0.747l-0.001 0.037v-244.244l-426.023 409.881 426.023 395.844v-211.257c-0.006-0.212-0.009-0.461-0.009-0.71 0-15.261 12.177-27.678 27.345-28.065l0.036-0.001c197.22 0 341.801-110.191 429.533-327.062 24.602-60.343 45.067-131.29 58.017-204.827l0.938-6.43z" />
<glyph unicode="&#xe908;" glyph-name="attachment" horiz-adv-x="512" d="M460.8 780.8v-588.8c0-113.108-91.692-204.8-204.8-204.8s-204.8 91.692-204.8 204.8v0 588.8c0 70.692 57.308 128 128 128s128-57.308 128-128v0-460.8c0-28.277-22.923-51.2-51.2-51.2s-51.2 22.923-51.2 51.2v460.8h-51.2v-460.8c0-56.554 45.846-102.4 102.4-102.4s102.4 45.846 102.4 102.4v460.8c0 98.969-80.231 179.2-179.2 179.2s-179.2-80.231-179.2-179.2v0-588.8c0-141.385 114.615-256 256-256s256 114.615 256 256v0 588.8h-51.2z" />
<glyph unicode="&#xe909;" glyph-name="tasks" d="M810.667 362.667c-117.821 0-213.333-95.513-213.333-213.333s95.513-213.333 213.333-213.333c117.821 0 213.333 95.513 213.333 213.333v0c0 117.821-95.513 213.333-213.333 213.333v0zM810.667-21.333c-94.257 0-170.667 76.41-170.667 170.667s76.41 170.667 170.667 170.667c94.257 0 170.667-76.41 170.667-170.667v0c0-94.257-76.41-170.667-170.667-170.667v0zM437.376 501.333h64c11.782 0 21.333-9.551 21.333-21.333v0-64c0-11.782-9.551-21.333-21.333-21.333v0h-64c-11.782 0-21.333 9.551-21.333 21.333v0 64c0 0 0 0 0 0 0 11.767 9.527 21.309 21.288 21.333h0.002zM693.376 501.333h64c11.782 0 21.333-9.551 21.333-21.333v0-64c0-11.782-9.551-21.333-21.333-21.333v0h-64c-11.782 0-21.333 9.551-21.333 21.333v0 64c0 0 0 0 0 0 0 11.767 9.527 21.309 21.288 21.333h0.002zM437.376 288h64c11.782 0 21.333-9.551 21.333-21.333v0-64c0-11.782-9.551-21.333-21.333-21.333v0h-64c-11.782 0-21.333 9.551-21.333 21.333v0 64c0 0 0 0 0 0 0 11.767 9.527 21.309 21.288 21.333h0.002zM181.376 501.333h64c11.782 0 21.333-9.551 21.333-21.333v0-64c0-11.782-9.551-21.333-21.333-21.333v0h-64c-11.782 0-21.333 9.551-21.333 21.333v0 64c0 0 0 0 0 0 0 11.752 9.503 21.285 21.243 21.333h0.005zM181.376 288h64c11.782 0 21.333-9.551 21.333-21.333v0-64c0-11.782-9.551-21.333-21.333-21.333v0h-64c-11.782 0-21.333 9.551-21.333 21.333v0 64c0 0 0 0 0 0 0 11.752 9.503 21.285 21.243 21.333h0.005zM870.229 217.813l-91.477-91.733-27.52 27.733c-3.88 3.885-9.243 6.289-15.168 6.289-11.839 0-21.436-9.597-21.436-21.436 0-5.914 2.395-11.269 6.268-15.147v0l42.667-42.667c3.858-3.846 9.182-6.225 15.061-6.225s11.203 2.378 15.062 6.225l106.666 106.666c3.476 3.783 5.607 8.85 5.607 14.415 0 11.782-9.551 21.333-21.333 21.333-5.597 0-10.69-2.155-14.495-5.681l0.014 0.013zM544.384 64h-437.717c-35.346 0-64 28.654-64 64v0 469.333h853.333v-181.76c0-11.782 9.551-21.333 21.333-21.333s21.333 9.551 21.333 21.333v0 352.427c0 58.91-47.756 106.667-106.667 106.667v0h-74.667v10.667c0 41.237-33.429 74.667-74.667 74.667s-74.667-33.429-74.667-74.667v0-10.667h-277.333v10.667c-1.4 40.16-34.294 72.185-74.667 72.185s-73.266-32.025-74.663-72.057l-0.004-0.128v-10.667h-74.667c-58.91 0-106.667-47.756-106.667-106.667v0-640c0-58.91 47.756-106.667 106.667-106.667v0h437.76c11.773 0.012 21.312 9.559 21.312 21.333 0 11.782-9.551 21.333-21.333 21.333-0.008 0-0.015 0-0.023 0h0.001zM651.051 885.333c0 17.673 14.327 32 32 32s32-14.327 32-32v0-64c0-17.673-14.327-32-32-32s-32 14.327-32 32v0 64zM224.384 885.333c0.904 16.971 14.885 30.39 32 30.39s31.096-13.419 31.997-30.31l0.003-0.080v-64c-0.904-16.971-14.885-30.39-32-30.39s-31.096 13.419-31.997 30.31l-0.003 0.080v64zM106.667 832h74.667v-10.667c1.4-40.16 34.294-72.185 74.667-72.185s73.266 32.025 74.663 72.057l0.004 0.128v10.667h277.333v-10.667c0-41.237 33.429-74.667 74.667-74.667s74.667 33.429 74.667 74.667v0 10.667h74.667c35.346 0 64-28.654 64-64v0-128h-853.333v128c0 35.346 28.654 64 64 64v0z" />
<glyph unicode="&#xe90a;" glyph-name="forwarded" horiz-adv-x="1170" d="M0-64l54.126 89.186c100.498 166.083 290.67 264.485 522.533 272.14v-319.781l593.627 507.368-592.116 475.087v-318.269c-317.807-10.747-571.939-268.628-576.653-586.933l-0.005-0.453v-118.345h-1.512zM1079.101 483.401l-445.196-381.318v252.148h-29.257c-225.67 0-417.402-78.409-541.257-218.307 46.95 255.994 268.324 447.434 534.412 447.434 2.407 0 4.81-0.016 7.21-0.047l-0.365 0.004h29.257v256.78z" />
<glyph unicode="&#xe90b;" glyph-name="related" horiz-adv-x="1385" d="M342.136 960c-0.415 0.019-0.9 0.030-1.389 0.030-17.698 0-32.045-14.347-32.045-32.045s14.347-32.045 32.045-32.045c0.489 0 0.974 0.011 1.458 0.033l-0.069-0.002h703.729c0.415-0.019 0.9-0.030 1.389-0.030 17.698 0 32.045 14.347 32.045 32.045s-14.347 32.045-32.045 32.045c-0.489 0-0.974-0.011-1.458-0.033l0.069 0.002h-703.729zM342.136 832c-0.415 0.019-0.9 0.030-1.389 0.030-17.698 0-32.045-14.347-32.045-32.045s14.347-32.045 32.045-32.045c0.489 0 0.974 0.011 1.458 0.033l-0.069-0.002h703.729c0.415-0.019 0.9-0.030 1.389-0.030 17.698 0 32.045 14.347 32.045 32.045s-14.347 32.045-32.045 32.045c-0.489 0-0.974-0.011-1.458-0.033l0.069 0.002h-703.729zM212.209 828.687c-0.678 0.008-1.479 0.012-2.281 0.012-114.321 0-207.304-91.359-209.924-205.051l-0.004-0.244v-499.351c0-117.82 109.086-187.994 223.352-187.994h961.355c4.647-0.414 10.052-0.651 15.512-0.651 102.296 0 185.224 82.927 185.224 185.224 0 1.203-0.011 2.404-0.034 3.601l0.003-0.18v499.351c0.022 1.119 0.035 2.438 0.035 3.76 0 111.345-90.263 201.608-201.608 201.608-1.135 0-2.267-0.009-3.398-0.028l0.17 0.002c-0.356 0.013-0.774 0.020-1.194 0.020-18.524 0-33.793-13.936-35.894-31.896l-0.016-0.169c1.625-17.999 16.639-31.995 34.923-31.995 0.301 0 0.602 0.004 0.901 0.011l-0.044-0.001c0.161 0.001 0.352 0.001 0.543 0.001 45.497 0 85.888-21.865 111.237-55.66l0.258-0.36-515.494-317.32c-20.773-11.648-45.589-18.509-72.007-18.509-25.435 0-49.385 6.359-70.347 17.575l0.801-0.391-534.588 322.62c27.546 31.946 68.070 52.045 113.289 52.045 0.259 0 0.518-0.001 0.776-0.002h-0.040c16.387 0.018 29.664 13.307 29.664 29.696 0 0.806-0.032 1.604-0.095 2.393l0.007-0.104c0.015 0.36 0.024 0.782 0.024 1.206 0 17.033-13.808 30.84-30.84 30.84-0.093 0-0.186 0-0.279-0.001h0.014zM342.136 704c-0.415 0.019-0.9 0.030-1.389 0.030-17.698 0-32.045-14.347-32.045-32.045s14.347-32.045 32.045-32.045c0.489 0 0.974 0.011 1.458 0.033l-0.069-0.002h703.729c0.415-0.019 0.9-0.030 1.389-0.030 17.698 0 32.045 14.347 32.045 32.045s-14.347 32.045-32.045 32.045c-0.489 0-0.974-0.011-1.458-0.033l0.069 0.002h-703.729zM69.933 655.33l530.552-320.693c29.291-15.934 64.145-25.302 101.187-25.302 0.427 0 0.853 0.001 1.279 0.004h-0.066c0.194-0.001 0.424-0.001 0.654-0.001 39.072 0 75.776 10.136 107.626 27.923l-1.121-0.575 507.241 311.959c1.266-7.359 1.99-15.834 1.99-24.479 0-0.288-0.001-0.576-0.002-0.864v0.044-499.351c0.051-1.314 0.081-2.856 0.081-4.405 0-66.534-53.937-120.471-120.471-120.471-5.038 0-10.004 0.309-14.88 0.91l0.584-0.059h-961.355c-80.113 0-157.395 47.285-157.395 124.024v499.351c0.079 11.416 1.569 22.449 4.302 32.98l-0.206-0.935z" />
<glyph unicode="&#xe90c;" glyph-name="recalled" horiz-adv-x="1075" d="M1053.696 930.406c-3.936 1.721-8.522 2.723-13.342 2.723-9.664 0-18.388-4.026-24.585-10.493l-0.012-0.012-118.528-122.112c-89.575 97.938-217.824 159.224-360.391 159.539h-0.057c-206.747-1.337-383.368-128.888-456.79-309.409l-1.194-3.32c-1.763-4.118-2.788-8.909-2.788-13.94 0-14.591 8.621-27.168 21.046-32.917l0.224-0.093c3.976-1.807 8.623-2.863 13.515-2.867h0.002c14.488 0.101 26.864 9.035 32.018 21.681l0.084 0.233c64.174 158.098 216.079 267.781 393.74 268.902l0.141 0.001c123.298-0.274 234.108-53.505 310.932-138.147l0.312-0.349-161.28-166.093c-6.309-6.567-10.194-15.503-10.194-25.347 0-4.944 0.98-9.659 2.757-13.962l-0.089 0.243c5.149-13.005 17.586-22.049 32.145-22.118h328.969c19.314 0.258 34.871 15.975 34.871 35.325 0 0.181-0.001 0.362-0.004 0.542v-0.027 338.944c0.001 0.083 0.001 0.18 0.001 0.278 0 14.609-8.74 27.176-21.277 32.758l-0.228 0.091zM1005.568 594.227h-210.176l210.176 216.525v-216.525zM968.858 270.643c-4.473 2.288-9.758 3.629-15.355 3.629-13.763 0-25.633-8.105-31.097-19.802l-0.088-0.211c-67.945-146.638-213.869-246.524-383.122-246.524-123.621 0-234.796 53.286-311.81 138.141l-0.313 0.35 161.28 166.093c6.331 6.571 10.23 15.522 10.23 25.384 0 4.93-0.975 9.632-2.741 13.925l0.089-0.244c-5.184 12.979-17.6 22.004-32.139 22.118h-329.025c-19.286-0.257-34.821-15.951-34.821-35.274 0-0.199 0.002-0.398 0.005-0.596v0.030-338.944c-0.001-0.089-0.001-0.195-0.001-0.3 0-14.589 8.717-27.142 21.227-32.735l0.227-0.091c3.933-1.715 8.515-2.713 13.33-2.713 9.666 0 18.393 4.022 24.599 10.484l0.011 0.012 118.528 122.112c89.813-98.181 218.494-159.524 361.503-159.524 196.784 0 366.439 116.149 444.151 283.632l1.258 3.022c2.277 4.611 3.609 10.040 3.609 15.779 0 13.92-7.835 26.009-19.335 32.1l-0.197 0.095zM69.53 301.824h210.227l-210.227-216.525v216.525z" />
<glyph unicode="&#xe90d;" glyph-name="waiting" d="M512 954.737c-0.203 0-0.444 0-0.685 0-63.074 0-123.449-11.559-179.12-32.675l3.472 1.156 14.746-39.567c48.624 18.778 104.89 29.657 163.696 29.657 257.694 0 466.596-208.902 466.596-466.596s-208.902-466.596-466.596-466.596c-257.694 0-466.596 208.902-466.596 466.596 0 144.21 65.422 273.14 168.206 358.729l0.755 0.611v-146.903h42.189v211.128h-211.149v-42.23h129.229c-105.436-93.31-171.569-228.966-171.569-380.068 0-279.874 226.883-506.757 506.757-506.757s506.757 226.883 506.757 506.757c0 279.85-226.843 506.717-506.683 506.757h-0.004zM512-64c-282.747 0.031-511.946 229.249-511.946 512 0 147.839 62.659 281.044 162.869 374.505l0.303 0.279h-121.037v52.777h221.798v-221.676h-52.838v140.8c-95.71-83.924-155.809-206.445-155.809-343.003 0-251.541 203.914-455.455 455.455-455.455s455.455 203.914 455.455 455.455c0 251.541-203.914 455.455-455.455 455.455-56.933 0-111.427-10.446-161.669-29.527l3.13 1.043-4.915-1.843-18.432 49.48 4.915 1.843c52.845 20.18 113.962 31.867 177.809 31.867 282.77 0 512-229.23 512-512 0-282.641-229.021-511.791-511.614-512h-0.019zM52.838 833.331h138.035l-10.65-9.236c-103.636-91.969-168.619-225.51-168.619-374.23 0-275.915 223.674-499.589 499.589-499.589s499.589 223.674 499.589 499.589c0 275.915-223.674 499.589-499.589 499.589-60.529 0-118.544-10.764-172.235-30.483l3.466 1.114 11.059-29.696c47.643 17.756 102.688 28.030 160.134 28.030 260.363 0 471.429-211.066 471.429-471.429s-211.066-471.429-471.429-471.429c-260.363 0-471.429 211.066-471.429 471.429 0 145.746 66.138 276.044 170.039 362.52l0.764 0.618 8.602 7.127v-152.842h31.744v200.581h-200.499v-31.662zM385.229 279.101h-42.189v-42.23h337.92v42.23h-42.394v72.069l-96.666 96.829 96.666 96.829v72.090h42.394v42.23h-337.92v-42.23h42.189v-72.090l96.87-96.829-96.87-96.829v-72.069zM427.622 562.319v54.6h168.755v-54.6l-84.378-84.46zM512 418.14l84.378-84.439v-54.6h-168.755v54.6zM686.080 231.588h-348.365v52.777h42.394v68.997l94.618 94.638-94.618 94.638v68.997h-42.394v52.777h348.365v-52.777h-42.189v-68.997l-94.618-94.638 94.618-94.638v-68.997h42.189v-52.777zM348.365 242.156h327.27v31.662h-42.189v75.182l-99.123 99 99.123 99.021v75.182h42.189v31.662h-327.27v-31.662h42.189v-75.182l99.123-99.021-99.123-99v-75.182h-42.189v-31.662zM601.702 273.818h-179.405v62.054l89.702 89.743 89.702-89.743v-62.054zM432.742 284.365h158.31v47.104l-79.053 79.176-79.258-79.176v-47.104zM512 470.385l-89.702 89.743v62.075h179.405v-62.075zM432.742 564.593l79.258-79.196 79.053 79.196v47.104h-158.31v-47.104zM385.229 152.494h42.394v-42.414h-42.394v42.23zM432.742 105.001h-52.634v52.777h52.634v-52.777zM390.554 115.548h31.744v31.662h-31.744v-31.662zM490.906 152.412h42.189v-42.332h-42.189v42.23zM538.419 104.919h-52.838v52.777h52.838v-52.777zM496.23 115.466v31.662h31.539v-31.662h-31.539zM596.378 152.33h42.189v-42.25h-42.189v42.23zM643.891 104.837h-52.838v52.777h52.838v-52.777zM601.702 115.384h31.744v31.662h-31.744v-31.662z" />
<glyph unicode="&#xe90e;" glyph-name="new" d="M512 960c-282.77 0-512-229.23-512-512s229.23-512 512-512c282.77 0 512 229.23 512 512v0c0 282.77-229.23 512-512 512v0zM512 13.824c-239.789 0-434.176 194.387-434.176 434.176s194.387 434.176 434.176 434.176c239.789 0 434.176-194.387 434.176-434.176v0c0-239.789-194.387-434.176-434.176-434.176v0 0zM672.768 486.912h-121.856v121.856c0 21.49-17.421 38.912-38.912 38.912s-38.912-17.421-38.912-38.912v0-121.856h-121.856c-21.491 0-38.912-17.421-38.912-38.912s17.421-38.912 38.912-38.912h121.856v-121.856c0-21.49 17.421-38.912 38.912-38.912s38.912 17.421 38.912 38.912v0 121.856h121.856c21.491 0 38.912 17.421 38.912 38.912s-17.421 38.912-38.912 38.912v0z" />
<glyph unicode="&#xe90f;" glyph-name="done" d="M512 960c-282.77 0-512-229.23-512-512s229.23-512 512-512c282.77 0 512 229.23 512 512v0c-0.199 282.69-229.311 511.802-511.982 512h-0.018zM512 8.726c-0.020 0-0.042 0-0.065 0-242.616 0-439.296 196.68-439.296 439.296s196.68 439.296 439.296 439.296c242.616 0 439.296-196.68 439.296-439.296 0-0.008 0-0.016 0-0.023v0.002c-0.112-242.545-196.69-439.138-439.218-439.274h-0.013zM461.889 301.067v0c-9.972 0.359-18.953 4.329-25.734 10.633l0.025-0.023-115.037 115.124c-6.598 6.587-10.68 15.693-10.68 25.753 0 20.097 16.292 36.389 36.389 36.389 10.038 0 19.126-4.064 25.709-10.637v0l89.328-89.328 189.549 189.331c6.544 6.359 15.487 10.279 25.345 10.279 20.095 0 36.385-16.29 36.385-36.385 0-9.875-3.934-18.83-10.319-25.386l-215.032-215.097c-6.142-6.58-14.867-10.682-24.55-10.682-0.484 0-0.966 0.010-1.445 0.031l0.068-0.002z" />
<glyph unicode="&#xe910;" glyph-name="delayed" d="M512.455 11.89c-0.034 0-0.073 0-0.113 0-241.008 0-436.383 195.375-436.383 436.383 0 220.989 164.266 403.611 377.357 432.425l2.251 0.249v76.777c-257.572-29.49-455.771-246.244-455.771-509.29 0-283.009 229.424-512.432 512.432-512.432 262.981 0 479.692 198.101 509.048 453.216l0.222 2.371h-76.686c-29.226-215.16-211.562-379.288-432.313-379.699h-0.043zM872.903 467.479h-306.972c-5.859 16.165-18.399 28.668-34.194 34.351l-0.395 0.124v307.2h-37.774v-307.2c-22.461-7.95-38.261-29.006-38.261-53.753 0-31.419 25.47-56.889 56.889-56.889 24.728 0 45.77 15.777 53.612 37.813l0.123 0.398h306.972v37.956zM713.842 835.391l38.229 65.991c-25.114 13.694-54.493 26.229-85.12 35.96l-3.627 0.995-19.57-73.5c27.157-8.747 50.342-18.722 72.371-30.568l-2.284 1.122zM947.996 467.479h75.776c-1.211 34.408-5.542 67.108-12.732 98.721l0.672-3.512-73.273-19.661c4.938-22.135 8.36-48.067 9.524-74.585l0.034-0.963zM806.912 769.877l53.703 53.817c-22.578 21.099-47.426 40.377-73.947 57.258l-2.056 1.223-38.002-65.832c22.635-14.651 42.333-29.952 60.624-46.759l-0.322 0.292zM880.185 682.769l65.764 38.002c-18.081 28.619-37.361 53.499-58.749 76.383l0.267-0.289-53.703-53.84c16.436-17.964 31.718-37.643 45.345-58.501l1.076-1.755zM606.891 874.507l19.797 73.341c-28.171 6.649-60.915 11.039-94.48 12.196l-0.865 0.024v-75.935c27.42-1.128 53.354-4.577 78.478-10.174l-2.93 0.548zM928.654 579.732l73.5 19.684c-10.779 34.301-23.28 63.677-38.234 91.54l1.37-2.794-65.991-38.138c10.601-19.738 20.543-42.99 28.465-67.157l0.889-3.135z" />
<glyph unicode="&#xe911;" glyph-name="assigned" horiz-adv-x="914" d="M256.914 288.512c0-42.642 27.794-78.391 59.977-78.391h281.234c32.366 0 59.977 35.749 59.977 78.391v33.445c-0.189 10.817-6.112 20.209-14.852 25.286l-0.143 0.076-72.594 41.509c-8.724 5.256-14.469 14.679-14.469 25.443 0 3.701 0.679 7.243 1.92 10.509l-0.068-0.203c7.983 19.107 12.621 41.308 12.621 64.591 0 0.397-0.001 0.793-0.004 1.189v-0.061c0 51.877-11.52 122.203-113.006 122.203s-113.006-69.175-113.006-122.203c-0.001-0.202-0.001-0.442-0.001-0.682 0-23.453 4.705-45.807 13.222-66.17l-0.42 1.133c1.394-3.219 2.205-6.967 2.205-10.905 0-10.724-6.014-20.044-14.854-24.77l-0.151-0.074-73.691-42.661c-8.994-4.9-14.996-14.284-14.996-25.069 0-0.103 0.001-0.206 0.002-0.309v0.016-32.293h1.097zM457.509 562.926c49.554 0 62.354-14.994 62.354-71.479 0-43.886-21.943-88.795-62.354-88.795s-62.171 46.135-62.171 88.795c0 56.485 12.617 71.479 62.171 71.479zM321.463 317.349l71.497 40.338c4.181 2.304 9.164 3.66 14.464 3.66 4.357 0 8.499-0.916 12.245-2.566l-0.195 0.077c11.55-4.881 24.963-7.828 39.033-8.081l0.099-0.001c0.479-0.009 1.043-0.014 1.608-0.014 13.661 0 26.626 2.982 38.278 8.332l-0.572-0.235c3.551 1.561 7.69 2.47 12.042 2.47 5.3 0 10.286-1.348 14.633-3.72l-0.16 0.080 71.497-40.338c9.002-4.993 14.994-14.44 14.994-25.286 0-0.027 0-0.053 0-0.080v0.004-3.474c-0.806-15.372-13.408-27.547-28.88-27.666h-244.309c-0.166-0.003-0.361-0.005-0.557-0.005-15.417 0-27.96 12.31-28.334 27.637l-0.001 0.035v4.626c-0.274 1.295-0.431 2.782-0.431 4.306 0 8.857 5.305 16.475 12.91 19.849l0.138 0.055zM804.023 683.593c-34.261 40.804-74.785 74.982-120.348 101.44l-2.166 1.161-18.834-32.75c126.754-72.911 210.73-207.579 210.73-361.861 0-229.781-186.274-416.055-416.055-416.055s-416.055 186.274-416.055 416.055c0 229.781 186.274 416.055 416.055 416.055 26.692 0 52.797-2.514 78.091-7.317l-2.595 0.41-100.571-84.114 24.137-28.91 144.64 121.015-121.051 144.549-28.891-24.21 74.057-88.539c-20.47 3.281-44.070 5.156-68.108 5.156-249.857 0-452.407-202.549-452.407-452.407s202.549-452.407 452.407-452.407c249.857 0 452.407 202.549 452.407 452.407 0 110.828-39.852 212.348-106.007 291.013l0.565-0.69zM106.606 99.675c-66.332 78.808-106.636 181.432-106.636 293.47 0 252.473 204.67 457.143 457.143 457.143 19.993 0 39.686-1.283 59.001-3.772l-2.285 0.24-69.486 82.798 36.206 30.263 127.086-151.771-151.771-127.067-30.354 36.133 96.549 80.695c-18.888 3.111-40.655 4.888-62.837 4.888-224.408 0-406.327-181.919-406.327-406.327s181.919-406.327 406.327-406.327c224.408 0 406.327 181.919 406.327 406.327 0 150.377-81.689 281.675-203.112 351.938l-1.955 1.044-4.206 2.341 23.406 40.942 4.023-2.341c138.619-80.271 230.375-227.887 230.375-396.933 0-252.473-204.67-457.143-457.143-457.143-140.338 0-265.906 63.237-349.763 162.771l-0.566 0.69zM457.691 928.384l79.177-94.501-12.434 1.829c-19.918 3.154-42.885 4.955-66.274 4.955-246.131 0-445.659-199.529-445.659-445.659s199.529-445.659 445.659-445.659c246.131 0 445.659 199.529 445.659 445.659 0 163.207-87.731 305.924-218.606 383.564l-2.060 1.131-13.897-24.576c126.098-74.35 209.37-209.488 209.37-364.074 0-232.639-188.591-421.23-421.23-421.23s-421.23 188.591-421.23 421.23c0 232.639 188.591 421.23 421.23 421.23 26.998 0 53.403-2.54 78.988-7.394l-2.626 0.414 9.691-1.829-104.594-87.607 18.103-21.687 137.326 114.962-114.834 137.307z" />
<glyph unicode="&#xe912;" glyph-name="replied" horiz-adv-x="1170" d="M1170.286-64l-54.126 89.186c-100.45 166.083-290.621 264.485-522.533 272.14v-319.781l-593.627 507.368 592.067 475.087v-318.269c317.785-10.773 571.892-268.644 576.604-586.933l0.005-0.453v-118.345h1.609zM91.185 483.401l445.245-381.318v252.148h29.257c225.67 0 417.402-78.409 541.257-218.307-46.971 255.997-268.356 447.433-534.453 447.433-2.392 0-4.781-0.015-7.166-0.046l0.362 0.004h-29.306v256.78z" />
<glyph unicode="&#xe913;" glyph-name="info-big" d="M512 960c-282.345 0-512-216.902-512-483.514 0.472-128.685 52.822-245.052 137.212-329.351l0.004-0.004-20.294-40.588c-7.92-15.375-12.563-33.552-12.563-52.814 0-29.555 10.931-56.557 28.971-77.184l-0.117 0.137 1.489-1.769c21.684-23.895 52.842-38.855 87.495-38.912h0.010c0.074 0 0.162 0 0.25 0 14.798 0 28.951 2.767 41.968 7.811l-0.793-0.27 153.879 57.716c28.379-5.268 61.034-8.282 94.392-8.285h0.003c282.345 0 512 216.902 512 483.514s-229.562 483.514-511.907 483.514zM182.086 73.961l44.963 89.926-7.447 6.33c-88.974 73.261-145.586 183.042-146.71 306.079l-0.001 0.19c0 226.397 196.98 410.624 439.11 410.624s439.017-184.227 439.017-410.624-196.98-410.531-439.017-410.531c-34.385 0-67.908 3.696-100.192 10.711l3.098-0.565-3.537 0.745-173.335-64.977c-4.656-1.827-10.048-2.886-15.687-2.886-0.049 0-0.097 0-0.146 0h0.008c-0.007 0-0.016 0-0.025 0-24.776 0-44.861 20.085-44.861 44.861 0 7.335 1.76 14.258 4.881 20.371l-0.118-0.254zM618.682 304.64c-37.888-70.377-88.809-108.451-113.478-113.943-20.759-4.655-40.215 7.727-39.564 72.332l1.117 201.821c-0.093 19.27-1.769 26.438-6.516 25.321-6.33-1.396-27.369-23.645-40.029-38.167l-14.988 18.432c40.495 62.557 91.415 108.172 119.343 114.409 23.087 5.12 33.885-20.945 33.047-77.172l-3.631-198.191c-0.559-23.645 4.003-29.231 8.844-28.207 6.33 1.396 22.156 16.663 38.819 39.564zM545.978 702.511c1.295-4.593 2.039-9.868 2.039-15.317 0-27.914-19.536-51.265-45.681-57.127l-0.391-0.074c-25.507-5.679-46.359 8.937-52.224 35.188-6.889 31.092 7.913 66.188 42.915 74.007 29.51 6.609 48.221-13.498 53.341-36.678z" />
<glyph unicode="&#xe914;" glyph-name="Reply1" horiz-adv-x="1079" d="M548.847 684.173v247.051c0.003 0.165 0.005 0.359 0.005 0.553 0 11.174-6.528 20.823-15.979 25.342l-0.169 0.073c-3.302 1.662-7.196 2.636-11.318 2.636-7.097 0-13.519-2.886-18.159-7.548l-0.001-0.001-493.401-458.308c-5.623-5.41-9.115-12.999-9.115-21.404 0-8.057 3.209-15.364 8.42-20.713l-0.006 0.006 493.401-475.855c4.668-4.638 11.1-7.504 18.202-7.504 4.103 0 7.982 0.957 11.427 2.659l-0.151-0.067c9.986 4.297 16.85 14.051 16.85 25.409 0 0.197-0.002 0.393-0.006 0.589v-0.029 280.74c211.257-2.807 324.957-42.813 480.066-327.062 4.586-8.716 13.521-14.591 23.843-14.739h0.020c2.555 0.14 4.949 0.643 7.192 1.459l-0.173-0.055c11.879 3.668 20.361 14.55 20.361 27.414 0 0.232-0.003 0.464-0.008 0.694l0.001-0.034c-0.702 7.72-31.583 694.832-531.301 718.695zM1009.963 89.705c-47.296 77.102-110.030 140.285-184.313 186.709l-2.38 1.387c-74.77 37.431-162.905 59.342-256.157 59.342-16.063 0-31.974-0.65-47.708-1.925l2.069 0.135c-15.204-0.387-27.381-12.804-27.381-28.065 0-0.25 0.003-0.499 0.010-0.747l-0.001 0.037v-244.244l-426.023 409.881 426.023 395.844v-211.257c-0.006-0.212-0.009-0.461-0.009-0.71 0-15.261 12.177-27.678 27.345-28.065l0.036-0.001c197.22 0 341.801-110.191 429.533-327.062 24.602-60.343 45.067-131.29 58.017-204.827l0.938-6.43z" />
<glyph unicode="&#xe915;" glyph-name="Forma-1-copy-6" horiz-adv-x="1138" d="M1111.306 554.502h-201.434c-13.739-0.373-24.735-11.599-24.735-25.394 0-0.318 0.006-0.634 0.017-0.948l-0.001 0.045v-548.553h-86.78v844.655c0.002 0.125 0.003 0.273 0.003 0.421 0 13.965-11.292 25.292-25.243 25.35h-202.492c-13.717-0.292-24.725-11.48-24.725-25.24 0-0.187 0.002-0.373 0.006-0.559v0.028-845.707h-86.78v408.127c0.010 0.269 0.016 0.585 0.016 0.903 0 13.795-10.996 25.021-24.701 25.393l-0.034 0.001h-203.012c-13.739-0.373-24.735-11.599-24.735-25.394 0-0.318 0.006-0.634 0.017-0.948l-0.001 0.045v-408.127h-55.223c-5.848 0.103-11.17 2.275-15.284 5.812l0.032-0.027c-5.379 6.55-8.641 15.018-8.641 24.247 0 1.463 0.082 2.907 0.242 4.328l-0.016-0.174v921.442c0.004 0.158 0.006 0.344 0.006 0.531 0 13.759-11.008 24.948-24.698 25.239h-78.392c-12.84-1.881-22.587-12.819-22.587-26.034s9.747-24.153 22.444-26.017l0.143-0.017h53.646v-116.758h-53.646c-12.84-1.881-22.587-12.819-22.587-26.034s9.747-24.153 22.444-26.017l0.143-0.017h53.646v-116.758h-53.646c-12.84-1.881-22.587-12.819-22.587-26.034s9.747-24.153 22.444-26.017l0.143-0.017h53.646v-116.758h-53.646c-12.84-1.881-22.587-12.819-22.587-26.034s9.747-24.153 22.444-26.017l0.143-0.017h53.646v-116.758h-53.646c-12.84-1.881-22.587-12.819-22.587-26.034s9.747-24.153 22.444-26.017l0.143-0.017h53.646v-116.758h-53.646c-12.84-1.881-22.587-12.819-22.587-26.034s9.747-24.153 22.444-26.017l0.143-0.017h53.646v-40.497c-0.124-1.785-0.194-3.869-0.194-5.969 0-24.369 9.482-46.524 24.957-62.976l-0.044 0.047c12.743-11.607 29.712-18.768 48.353-18.934h960.922c13.684 0.111 24.733 11.229 24.733 24.929 0 0.296-0.005 0.591-0.015 0.885l0.001-0.043v565.909c0 0.043 0 0.094 0 0.145 0 14.528-11.372 26.401-25.7 27.201l-0.071 0.003zM257.709-21.399v382.356h149.892v-381.305h-149.892v-1.052zM596.939-21.399v819.936h150.418v-818.884h-150.418v-1.052zM936.168-21.399v522.256h150.418v-522.256h-150.418z" />
<glyph unicode="&#xe916;" glyph-name="Shape-1083" horiz-adv-x="1364" d="M380.054 720.73c-47.881 0.535-86.49 39.475-86.49 87.433 0 48.291 39.147 87.438 87.438 87.438s87.438-39.147 87.438-87.438c0-0.109 0-0.218-0.001-0.327v0.017c-0.177-48.157-39.256-87.127-87.437-87.127-0.333 0-0.666 0.002-0.998 0.006h0.051zM1299.255 838.787h-747.482c-8.057-0.021-15.383-3.139-20.853-8.225l0.019 0.017c-11.677 73.75-74.8 129.464-150.936 129.464-73.429 0-134.754-51.823-149.395-120.89l-0.177-0.998c-1.263 0-2.525 0.631-3.788 0.631h-195.078c-17.782 0-32.197-14.415-32.197-32.197s14.415-32.197 32.197-32.197v0h195.078c1.894 0 3.157 0.631 4.419 0.631 15.716-68.805 76.393-119.369 148.879-119.369 75.201 0 137.691 54.422 150.234 126.031l0.133 0.914c5.677-5.076 13.206-8.186 21.46-8.207h779.683c17.782 0 32.197 14.415 32.197 32.197s-14.415 32.197-32.197 32.197v0h-32.197zM1331.453 450.525h-184.345c-7.96 77.148-72.614 136.804-151.201 136.804s-143.241-59.656-151.147-136.153l-0.054-0.651h-813.139c-17.782 0-32.197-14.415-32.197-32.197s14.415-32.197 32.197-32.197v0h820.084c20.962-60.697 77.609-103.515 144.256-103.515s123.295 42.817 143.934 102.445l0.322 1.070h191.29c17.782 0 32.197 14.415 32.197 32.197s-14.415 32.197-32.197 32.197v0zM996.222 347.62c-48.154 0.18-87.122 39.258-87.122 87.437 0 48.291 39.147 87.438 87.438 87.438s87.438-39.147 87.438-87.438c0-0.111 0-0.222-0.001-0.332v0.017c-0.499-48.136-39.566-86.982-87.74-87.122h-0.013zM1364.281 95.092c-0.142 17.814-14.615 32.2-32.449 32.2-0.134 0-0.267-0.001-0.4-0.002h-779.659c-8.259-0.021-15.788-3.131-21.496-8.235l0.031 0.028c-15.001 70.019-76.359 121.754-149.801 121.754-70.934 0-130.597-48.262-147.941-113.741l-0.24-1.068c-1.671 0.682-3.606 1.134-5.629 1.26l-0.053 0.003h-195.078c-17.782 0-32.197-14.415-32.197-32.197s14.415-32.197 32.197-32.197v0h195.078c1.263 0 1.894 0.631 3.157 0.631 12.645-72.557 75.152-127.016 150.378-127.016 77.694 0 141.82 58.090 151.315 133.208l0.078 0.753c5.403-4.643 12.462-7.496 20.185-7.576h779.696c0.113-0.001 0.246-0.002 0.38-0.002 17.834 0 32.307 14.386 32.449 32.186v0.013zM380.054 1.026c-47.881 0.535-86.49 39.475-86.49 87.433 0 48.291 39.147 87.438 87.438 87.438 48.178 0 87.255-38.965 87.437-87.1v-0.017c0-0.057 0-0.125 0-0.193 0-48.36-39.204-87.564-87.564-87.564-0.289 0-0.577 0.001-0.865 0.004h0.044z" />
<glyph unicode="&#xe917;" glyph-name="Shape-1083-1" horiz-adv-x="1193" d="M1067.653 842.716c-0.11 0-0.24 0.001-0.37 0.001-64.912 0-117.578-52.427-117.966-117.248v-0.037c0.077-28.876 10.393-55.328 27.507-75.931l-0.158 0.196-217.212-287.162c-14.113 6.113-30.53 9.765-47.774 9.992l-0.086 0.001c-0.246 0.002-0.537 0.003-0.828 0.003-28.449 0-54.482-10.347-74.539-27.484l0.158 0.132-170.404 128.855c6.32 13.721 10.006 29.773 10.006 46.685 0 0.598-0.005 1.195-0.014 1.791l0.001-0.090c0.005 0.391 0.007 0.852 0.007 1.315 0 65.5-53.099 118.599-118.599 118.599s-118.599-53.099-118.599-118.599c0-65.405 52.945-118.445 118.314-118.599h0.015c0.052 0 0.115 0 0.177 0 28.659 0 54.903 10.339 75.205 27.491l-0.173-0.142 170.93-128.329c-6.34-13.387-10.042-29.084-10.042-45.646 0-1.149 0.018-2.293 0.053-3.433l-0.004 0.167c0-0.006 0-0.014 0-0.022 0-65.5 53.099-118.599 118.599-118.599s118.599 53.099 118.599 118.599c0 28.893-10.332 55.372-27.502 75.946l0.154-0.189 216.686 288.74c14.117-6.059 30.525-9.706 47.751-9.991l0.11-0.001c64.338 0 116.495 52.157 116.495 116.495s-52.157 116.495-116.495 116.495v0zM295.051 523.998c-0.005 0.313-0.008 0.682-0.008 1.052 0 36.018 29.198 65.216 65.216 65.216s65.216-29.198 65.216-65.216c0-36.015-29.193-65.211-65.207-65.216h-0.001c-0.266-0.004-0.58-0.006-0.894-0.006-35.471 0-64.236 28.712-64.322 64.162v0.008zM711.593 192.131c-35.241 0.446-63.638 29.118-63.638 64.422 0 35.582 28.845 64.427 64.427 64.427 35.488 0 64.275-28.693 64.427-64.145v-0.015c0-0.016 0-0.036 0-0.055 0-35.698-28.939-64.638-64.638-64.638-0.203 0-0.407 0.001-0.61 0.003h0.031zM1067.653 662.845c-34.982 0.592-63.112 29.089-63.112 64.156 0 35.437 28.727 64.164 64.164 64.164 35.434 0 64.159-28.722 64.164-64.155v0c-0.086-35.459-28.851-64.171-64.322-64.171-0.314 0-0.628 0.002-0.942 0.007l0.047-0.001zM1193.878-37.703c-0.088-14.253-11.663-25.774-25.928-25.774-0.13 0-0.259 0.001-0.388 0.003h-1008.728c-0.289-0.004-0.63-0.006-0.972-0.006-18.973 0-36.318 6.972-49.613 18.494l0.095-0.080c-16.057 16.025-25.991 38.18-25.991 62.655 0 2.197 0.080 4.375 0.237 6.531l-0.017-0.289v39.971h-56.801c-14.233 0-25.771 11.538-25.771 25.771s11.538 25.771 25.771 25.771h56.801v115.706h-56.801c-14.233 0-25.771 11.538-25.771 25.771s11.538 25.771 25.771 25.771h56.801v115.706h-56.801c-14.233 0-25.771 11.538-25.771 25.771s11.538 25.771 25.771 25.771h56.801v115.706h-56.801c-14.233 0-25.771 11.538-25.771 25.771s11.538 25.771 25.771 25.771h56.801v115.706h-56.801c-14.233 0-25.771 11.538-25.771 25.771s11.538 25.771 25.771 25.771h56.801v124.121h-56.801c-14.233 0-25.771 11.538-25.771 25.771s11.538 25.771 25.771 25.771h82.572c0.11 0.002 0.239 0.003 0.369 0.003 14.265 0 25.84-11.52 25.928-25.765v-911.983c-0.204-1.443-0.32-3.111-0.32-4.805 0-9.034 3.306-17.297 8.775-23.643l-0.040 0.047c4.838-3.46 10.83-5.599 17.311-5.784l0.045-0.001h1007.17c0.11 0.002 0.239 0.003 0.369 0.003 14.265 0 25.84-11.52 25.928-25.765v-0.008z" />
<glyph unicode="&#xe918;" glyph-name="eye" horiz-adv-x="1400" d="M699.877-64c-238.43 0-465.273 144.438-674.169 430.080-16.231 22.805-25.949 51.228-25.949 81.92s9.718 59.115 26.245 82.358l-0.296-0.438c208.896 285.103 435.739 430.080 674.169 430.080s465.112-144.977 674.061-430.080c16.268-22.794 26.010-51.219 26.010-81.92s-9.742-59.126-26.304-82.354l0.294 0.434c-208.95-285.642-435.685-430.080-674.061-430.080zM92.16 463.091c-2.956-4.212-4.725-9.445-4.725-15.091s1.768-10.879 4.781-15.175l-0.056 0.085c191.488-261.928 395.965-394.509 607.717-394.509s416.067 132.581 607.555 394.509c2.971 4.207 4.748 9.441 4.748 15.091s-1.777 10.883-4.804 15.174l0.056-0.083c-191.542 261.928-395.911 394.509-607.609 394.509s-416.229-132.581-607.717-394.509v0zM698.961 173.137c-3.878-0.195-8.42-0.307-12.989-0.307-151.981 0-275.187 123.205-275.187 275.187s123.205 275.187 275.187 275.187c151.981 0 275.187-123.205 275.187-275.187 0-0.006 0-0.012 0-0.018v0.001c0.041-1.758 0.065-3.829 0.065-5.906 0-146.204-116.62-265.17-261.913-268.95l-0.35-0.007zM698.961 631.242c-2.526 0.125-5.485 0.195-8.461 0.195-101.202 0-183.242-82.040-183.242-183.242s82.040-183.242 183.242-183.242c101.133 0 183.131 81.929 183.242 183.036v0.011c0.030 1.219 0.047 2.655 0.047 4.095 0 97.432-77.757 176.703-174.601 179.142l-0.226 0.005z" />
<glyph unicode="&#xe919;" glyph-name="info" d="M512-64c-282.77 0-512 229.23-512 512s229.23 512 512 512c282.77 0 512-229.23 512-512v0c0-282.77-229.23-512-512-512v0zM512 866.909c-231.357 0-418.909-187.552-418.909-418.909s187.552-418.909 418.909-418.909c231.357 0 418.909 187.552 418.909 418.909v0c0 0.138 0 0.302 0 0.466 0 231.1-187.344 418.444-418.444 418.444-0.164 0-0.327 0-0.491 0h0.025zM512 180.364c-25.706 0-46.545 20.839-46.545 46.545v0 267.636c0 25.706 20.839 46.545 46.545 46.545s46.545-20.839 46.545-46.545v0-267.636c0-25.706-20.839-46.545-46.545-46.545v0zM512 692.364c25.706 0 46.545-20.839 46.545-46.545s-20.839-46.545-46.545-46.545c-25.706 0-46.545 20.839-46.545 46.545v0c0 25.706 20.839 46.545 46.545 46.545v0zM512 587.636c-0.014 0-0.030 0-0.047 0-32.133 0-58.182 26.049-58.182 58.182s26.049 58.182 58.182 58.182c32.133 0 58.182-26.049 58.182-58.182v0c0.002-0.181 0.003-0.394 0.003-0.608 0-31.799-25.778-57.577-57.577-57.577-0.198 0-0.395 0.001-0.592 0.003h0.030zM512 680.727l-0.039-0.001c0.264 0.006 0.528 0.009 0.793 0.009 18.843 0 34.118-15.275 34.118-34.118 0-0.281-0.003-0.562-0.009-0.8v0c0-19.28-15.629-34.909-34.909-34.909s-34.909 15.629-34.909 34.909c0 19.28 15.629 34.909 34.909 34.909 0.016 0 0.033 0 0.047 0z" />
<glyph unicode="&#xe91a;" glyph-name="trash" d="M980.37 817.556h-250.073l-11.704 87.658c-2.451 30.481-27.791 54.288-58.691 54.288-0.010 0-0.021 0-0.031 0h-295.793c-0.022 0-0.049 0-0.075 0-30.89 0-56.219-23.812-58.632-54.082l-0.013-0.206-11.754-87.658h-250.073c-23.518 0-42.584-19.065-42.584-42.584s19.065-42.584 42.584-42.584v0h55.184l111.564-743.595c2.488-29.672 27.185-52.812 57.286-52.812 0.504 0 1.007 0.006 1.509 0.019l-0.074-0.002h483.611c30.341 0.152 55.285 23.059 58.646 52.521l0.025 0.273 111.514 742.101h57.575c0.406-0.014 0.882-0.022 1.361-0.022 22.803 0 41.365 18.157 42.018 40.802l0.001 0.060v1.992c0.003 0.179 0.004 0.39 0.004 0.602 0 23.667-19.018 42.892-42.606 43.227h-0.778zM388.682 871.844h244.047l7.023-54.288h-257.046zM727.956 21.167h-431.963l-106.882 709.728h645.678z" />
<glyph unicode="&#xe91b;" glyph-name="upload" horiz-adv-x="1388" d="M694.044 960c-0.282 0.001-0.616 0.001-0.95 0.001-116.362 0-221.717-47.129-298.017-123.34l0.004 0.004c-56.959-57.227-97.425-130.915-113.64-213.305l-0.434-2.645c-161.093-31.368-281.026-171.345-281.026-339.335 0-190.75 154.634-345.384 345.384-345.384 0.574 0 1.148 0.001 1.721 0.004h739.263c0.361-0.002 0.788-0.002 1.215-0.002 165.892 0 300.373 134.482 300.373 300.373 0 156.706-120.002 285.385-273.124 299.154l-1.158 0.084c0.037 2.060 0.057 4.489 0.057 6.923 0 230.564-186.909 417.473-417.473 417.473-0.772 0-1.544-0.002-2.316-0.006l0.119 0.001zM694.044 869.66c0.185 0 0.404 0.001 0.622 0.001 182.983 0 331.321-148.337 331.321-331.321 0-13.955-0.863-27.708-2.538-41.21l0.163 1.615c-0.221-1.676-0.347-3.615-0.347-5.583 0-22.965 17.189-41.914 39.403-44.685l0.22-0.022c1.629-0.251 3.541-0.415 5.483-0.454l0.046-0.001h17.931c116.438 0 210.83-94.392 210.83-210.83s-94.392-210.83-210.83-210.83v0h-739.396c-0.126 0-0.276 0-0.426 0-141.423 0-256.068 114.646-256.068 256.068 0 133.28 101.825 242.778 231.925 254.945l1.018 0.077c21.181 2.078 37.952 18.53 40.506 39.377l0.022 0.218c19.952 165.566 159.593 292.639 328.913 292.639 0.422 0 0.845-0.001 1.267-0.002h-0.065zM694.044 598.642c-0.643 0.037-1.396 0.058-2.154 0.058-11.145 0-21.228-4.547-28.495-11.887l-0.003-0.003-165.979-150.642c-8.988-8.338-14.595-20.213-14.595-33.398 0-11.773 4.471-22.503 11.807-30.583l-0.034 0.038c8.6-8.569 20.465-13.867 33.566-13.867 11.679 0 22.375 4.21 30.653 11.195l-0.071-0.058 90.044 81.92v-289.451c-0.007-0.302-0.011-0.658-0.011-1.015 0-24.997 20.264-45.261 45.261-45.261s45.261 20.264 45.261 45.261c0 0.357-0.004 0.713-0.012 1.068l0.001-0.053v289.451l90.066-81.92c8.252-6.767 18.916-10.869 30.537-10.869 13.068 0 24.924 5.186 33.623 13.612l-0.013-0.012c7.34 8.027 11.837 18.761 11.837 30.545 0 13.201-5.643 25.084-14.649 33.369l-165.989 150.671c-6.993 7.361-16.854 11.94-27.785 11.94-1.009 0-2.009-0.039-2.998-0.116l0.131 0.008z" />
<glyph unicode="&#xe91c;" glyph-name="no-task" horiz-adv-x="1131" d="M493.861 306.649l-140.239 142.512-54.418-55.472 194.658-198.159 338.115 344.191-54.516 55.481zM-0.098-63.941h1131.276v929.109h-269.946v94.832h-77.141v-94.861h-437.102v94.861h-77.141v-94.861h-269.946v-929.139zM77.044 786.642h192.805v-65.399h77.141v65.399h437.102v-65.399h77.141v65.399h192.805v-772.076h-976.994v772.067z" />
<glyph unicode="&#xe91d;" glyph-name="search-related" horiz-adv-x="998" d="M593.66 477.722c-0.17 0.001-0.371 0.001-0.573 0.001-75.035 0-135.862-60.828-135.862-135.862s60.828-135.862 135.862-135.862c75.035 0 135.862 60.828 135.862 135.862 0 0.003 0 0.005 0 0.008v-0.001c-0.048 74.812-60.522 135.484-135.254 135.853h-0.035zM593.66 239.946c-0.108 0-0.236-0.001-0.364-0.001-56.276 0-101.897 45.621-101.897 101.897s45.621 101.897 101.897 101.897c56.276 0 101.896-45.62 101.897-101.896v0c-0.054-56.121-45.438-101.624-101.509-101.871h-0.024zM987.813 41.22l-43.997 44.153c2.257 4.848 3.573 10.524 3.573 16.508 0 1.365-0.069 2.715-0.202 4.045l0.014-0.168v509.518c0.006 0.291 0.010 0.634 0.010 0.978 0 27.596-22.371 49.968-49.968 49.968-0.284 0-0.568-0.002-0.851-0.007l0.043 0.001h-113.334l-551.398 293.784-91.379-174.913h-64.304c-23.113-0.509-42.492-15.928-48.933-36.997l-0.097-0.371-25.34-89.999c-1.175-3.218-1.855-6.933-1.855-10.807 0-0.977 0.043-1.943 0.128-2.898l-0.009 0.124v-538.329c-0.006-0.291-0.010-0.634-0.010-0.978 0-27.601 22.375-49.976 49.976-49.976 0.281 0 0.561 0.002 0.841 0.007l-0.042-0.001h734.156l108.214-108.683c5.961-6.281 14.369-10.189 23.691-10.189s17.73 3.908 23.677 10.174l0.013 0.014 47.382 47.547c6.265 6.001 10.159 14.435 10.159 23.778s-3.894 17.776-10.147 23.766l-0.012 0.011zM246.888 914.094l461.755-247.938h-135.289l15.273 27.171-30.46 15.291-22.042-42.461h-77.755l40.613 74.726-30.46 15.282-47.382-90.008h-77.841l65.953 122.273-30.373 15.282-66.039-125.666-20.306 69.623c-2.1 7.82-5.597 14.636-10.242 20.501l0.089-0.117 37.228 67.922-28.724 16.983-35.493-69.623c-3.384 0-6.769 1.736-10.153 1.736h-67.688zM50.679 88.776c-0.279-0.017-0.605-0.027-0.933-0.027-8.847 0-16.020 7.172-16.020 16.020 0 0.348 0.011 0.694 0.033 1.037l-0.002-0.047v543.484l25.426 89.999c2.13 6.946 8.486 11.91 16.002 11.91 0.293 0 0.584-0.008 0.874-0.022l-0.041 0.002h169.22c7.54-0.624 13.864-5.268 16.87-11.763l0.052-0.126 20.22-69.623c6.557-21.46 25.973-36.886 49.062-37.366l0.055-0.001h564.936c0.282 0.018 0.611 0.028 0.942 0.028 8.843 0 16.011-7.168 16.011-16.011 0-0.349-0.011-0.695-0.033-1.038l0.002 0.047v-499.269l-69.337 69.623c-5.989 5.973-14.255 9.666-23.383 9.666-3.105 0-6.109-0.427-8.959-1.226l0.233 0.056-43.997 44.145c17.437 29.295 27.744 64.596 27.744 102.304 0 111.833-90.659 202.492-202.492 202.492s-202.492-90.659-202.492-202.492c0-111.833 90.659-202.492 202.492-202.492 0.174 0 0.348 0 0.521 0.001h-0.027c0.165-0.001 0.361-0.001 0.558-0.001 37.956 0 73.403 10.741 103.467 29.35l-0.843-0.486 43.997-44.145c0-3.402-1.736-5.103-1.736-8.496 0.082-9.325 3.953-17.729 10.146-23.762l1.743-1.743h-700.312zM783.1 175.382l-23.691-23.778-59.184 59.444-10.153-6.795c-26.75-19.121-60.12-30.573-96.166-30.573-0.087 0-0.173 0-0.26 0h0.013c-0.204-0.001-0.445-0.001-0.686-0.001-93.789 0-169.819 76.031-169.819 169.819s76.031 169.819 169.819 169.819c93.788 0 169.818-76.030 169.819-169.818v0c0.004-0.439 0.007-0.957 0.007-1.475 0-35.751-11.416-68.837-30.801-95.809l0.335 0.49-8.418-11.889zM916.74-30.104l-143.794 144.349 47.382 47.547 143.794-144.341z" />
<glyph unicode="&#xe91e;" glyph-name="clone" horiz-adv-x="939" d="M937.387 729.6c0.029 0.48 0.046 1.040 0.046 1.605 0 7.701-3.115 14.675-8.154 19.729l0.001-0.001-198.4 200.96c-5.289 5.023-12.456 8.112-20.345 8.112-0.198 0-0.395-0.002-0.591-0.006h-420.238c-39.69-0.482-71.68-32.769-71.68-72.528 0-0.002 0-0.004 0-0.005v0-148.48h-146.347c-39.66-0.338-71.68-32.567-71.68-72.275 0-0.091 0-0.182 0.001-0.273v0.014-657.92c0-0.001 0-0.003 0-0.005 0-39.759 31.99-72.046 71.634-72.528h577.326c39.465 0.529 71.254 32.645 71.254 72.186 0 0.122 0 0.244-0.001 0.366v-0.019 148.48h146.773c39.69 0.482 71.68 32.769 71.68 72.528 0 0.002 0 0.004 0 0.005v0l-1.28 500.053zM738.987 858.453l96.853-98.133h-96.853v98.133zM647.68-2.987h-577.28c-0.013 0-0.028 0-0.043 0-6.339 0-11.477 5.139-11.477 11.477 0 0.015 0 0.030 0 0.045v-0.002 657.92c-0.004 0.114-0.006 0.249-0.006 0.384 0 6.373 5.156 11.542 11.524 11.563h389.975v-170.667c0.214-16.644 13.649-30.080 30.273-30.293h168.553v-468.907c0.063-0.427 0.1-0.921 0.1-1.422 0-5.632-4.566-10.197-10.197-10.197-0.502 0-0.995 0.036-1.477 0.106l0.055-0.007zM520.533 538.027v98.133l97.28-98.133h-97.28zM866.987 217.6h-147.627v290.133c0.005 0.197 0.007 0.429 0.007 0.662 0 7.857-3.092 14.993-8.125 20.256l0.010-0.011-199.68 202.24c-5.289 5.023-12.456 8.112-20.345 8.112-0.198 0-0.395-0.002-0.591-0.006h-213.731v149.76c0.117 6.315 5.205 11.403 11.509 11.52h390.411v-170.667c0.162-16.516 13.387-29.891 29.829-30.293l0.038-0.001h168.533v-468.907c0.11-0.58 0.173-1.248 0.173-1.93 0-5.844-4.608-10.613-10.389-10.869l-0.023-0.001zM517.12 316.587h-128v129.707c-0.373 16.578-13.715 29.92-30.258 30.293l-0.035 0.001c-16.48-0.402-29.705-13.777-29.867-30.278v-129.723h-128c-16.848 0-30.507-13.658-30.507-30.507s13.658-30.507 30.507-30.507v0h128v-129.707c0.162-16.516 13.387-29.891 29.829-30.293l0.038-0.001c16.578 0.373 29.92 13.715 30.293 30.258l0.001 0.035v129.707h128c16.595 0.476 29.867 14.042 29.867 30.708 0 0.004 0 0.008 0 0.012v-0.001c0.002 0.127 0.003 0.277 0.003 0.427 0 16.495-13.372 29.867-29.867 29.867-0.001 0-0.002 0-0.003 0v0z" />
<glyph unicode="&#xe91f;" glyph-name="close" d="M512 237.653h0.111c53.461 0.118 105.894 4.613 151.355 12.373l0.307 0.039c23.756 3.632 42.529 22.405 46.2 46.468l-0.769-5.496c8.643 51.031 13.143 103.471 13.143 156.963s-4.5 105.933-12.374 151.467l-0.039 0.307c-3.632 23.756-22.405 42.529-46.468 46.2l5.603-0.749c-51.133 8.283-103.599 12.589-157.070 12.589s-105.938-4.305-151.467-11.84l-0.307-0.039c-23.756-3.632-42.529-22.405-46.2-46.468l0.769 5.496c-8.643-51.031-13.143-103.471-13.143-156.963s4.5-105.933 12.374-151.467l0.039-0.307c3.632-23.756 22.405-42.529 46.468-46.2l-5.587 0.773c51.060-8.551 103.494-13.047 157.054-13.146zM512-64c-282.77 0-512 229.23-512 512s229.23 512 512 512c282.77 0 512-229.23 512-512v0c-0.533-282.555-229.445-511.467-511.949-512h-0.051zM512 914.347c-257.556 0-466.347-208.791-466.347-466.347s208.791-466.347 466.347-466.347c257.556 0 466.347 208.791 466.347 466.347v0c-0.194 257.478-208.869 466.152-466.328 466.347h-0.019zM384 576h256v-256h-256v256z" />
<glyph unicode="&#xe920;" glyph-name="export" d="M512 960c-282.77 0-512-229.23-512-512s229.23-512 512-512c282.77 0 512 229.23 512 512v0c-0.354 282.627-229.373 511.646-511.966 512h-0.034zM512-23.040c-260.148 0-471.040 210.892-471.040 471.040s210.892 471.040 471.040 471.040c260.148 0 471.040-210.892 471.040-471.040v0c-0.253-260.046-210.994-470.787-471.015-471.040h-0.025zM736.835 582.901c-5.024 5.346-12.141 8.676-20.035 8.676s-15.011-3.33-20.021-8.662l-0.013-0.014c-5.157-5.197-8.344-12.355-8.344-20.257s3.187-15.061 8.346-20.259l-0.002 0.002 65.002-65.447h-610.838c-15.86 0-28.717-12.857-28.717-28.717s12.857-28.717 28.717-28.717h610.838l-65.002-65.892c-5.157-5.197-8.344-12.355-8.344-20.257s3.187-15.061 8.346-20.259l-0.002 0.002c5.15-5.118 12.205-8.324 20.009-8.459h0.026c7.814 0.227 14.842 3.411 20.042 8.466l-0.007-0.007 113.085 114.866c5.157 5.197 8.344 12.355 8.344 20.257s-3.187 15.061-8.346 20.259l0.002-0.002z" />
<glyph unicode="&#xe921;" glyph-name="print" horiz-adv-x="1078" d="M1027.234 671.124v-431.697c0.014-0.4 0.022-0.87 0.022-1.342 0-2.382-0.204-4.716-0.596-6.985l0.035 0.243c-0.264-0.972-0.416-2.088-0.416-3.239 0-7.084 5.743-12.827 12.827-12.827s12.827 5.743 12.827 12.827c0 7.084-5.743 12.827-12.827 12.827-5.333 0-9.906-3.255-11.841-7.887l-0.031-0.085c-0.353-0.799-0.559-1.73-0.559-2.709 0-0.185 0.007-0.367 0.022-0.548l-0.002 0.024c-1.332-6.698-2.822-12.306-4.615-17.777l0.303 1.069c-0.572-0.925-0.957-2.024-1.075-3.202l-0.003-0.032 0.539 1.617c-1.174-3.146-2.444-5.811-3.912-8.345l0.14 0.261c-2.695-4.851-5.389-8.623-8.623-13.474-1.617-2.695 3.234 3.773 1.078 1.617-0.793-1.224-1.683-2.284-2.686-3.225l-0.009-0.009c-1.389-2.011-2.805-3.77-4.338-5.418l0.027 0.029c-2.164-1.723-4.099-3.487-5.91-5.37l-0.018-0.019c-0.539-0.539-2.695-2.156-2.695-2.156-0.828-0.4-1.801-0.634-2.829-0.634-3.661 0-6.629 2.968-6.629 6.629s2.968 6.629 6.629 6.629c3.661 0 6.629-2.968 6.629-6.629 0-1.948-0.84-3.699-2.178-4.912l-0.006-0.005c-0.539-0.539-1.078-0.539-1.617-1.078-3.756-2.875-7.992-5.56-12.459-7.861l-0.476-0.223c-1.708-1.195-3.658-2.278-5.717-3.154l-0.212-0.080c1.078-0.539 5.389 2.156 0.539 0.539-1.095-0.577-2.377-0.963-3.737-1.075l-0.036-0.002c-4.147-1.765-9.024-3.256-14.083-4.236l-0.469-0.076h-1.617c3.773-0.539-1.078 0-2.156-0.539h-8.623c-44.733-0.539-89.465 0-134.198 0h-4.312c8.084-8.623 16.707-17.246 24.792-25.869v286.181c0.001 0.068 0.001 0.149 0.001 0.23 0 13.865-11 25.162-24.749 25.638l-0.044 0.001h-471.040c-21.558 0-43.655 0.539-65.213 0h-0.539c-14.041-0.242-25.331-11.682-25.331-25.758 0-0.039 0-0.078 0-0.117v0.006-286.181c8.623 8.623 16.707 17.246 25.331 25.869h-146.055c-0.292-0.023-0.631-0.036-0.974-0.036-1.383 0-2.717 0.21-3.971 0.6l0.095-0.025c0.539-1.078 5.389-1.078 0.539 0-7.494 1.28-14.189 3.341-20.482 6.143l0.541-0.215c-4.851 1.617 1.078-1.078 1.078-1.078s-3.773 2.156-4.312 2.156c-3.287 1.601-6.116 3.395-8.719 5.463l0.096-0.073c-2.695 1.617-4.851 3.234-7.545 4.851s4.851-3.773 0.539-0.539l-4.851 4.851c-2.493 2.226-4.78 4.514-6.933 6.923l-0.073 0.083c-0.762 1.239-1.655 2.304-2.681 3.222l-0.014 0.012c-2.156 2.695 3.773-4.851 0.539-0.539-3.277 4.793-6.674 10.433-9.763 16.261l-0.477 0.985c0 0.539-0.539 1.078-0.539 1.617-1.078 2.695-1.078 2.156 0.539-1.078-0.821 1.225-1.394 2.685-1.611 4.258l-0.006 0.054c-1.158 2.797-2.266 6.213-3.127 9.727l-0.106 0.513c-0.539 2.695-1.078 5.389-1.617 8.623-1.078 5.928 0.539-6.467 0 0 0 2.156-0.539 4.851-0.539 7.006v285.642c0 49.044-0.539 97.549 0 146.594v4.851c-0.014 0.239-0.021 0.518-0.021 0.799 0 1.443 0.205 2.838 0.586 4.157l-0.026-0.105v1.617c0.089 0.418 0.139 0.898 0.139 1.391 0 3.869-3.137 7.006-7.006 7.006s-7.006-3.137-7.006-7.006c0-3.869 3.137-7.006 7.006-7.006 2.777 0 5.176 1.615 6.31 3.957l0.018 0.042c0.131 4.318 1.11 8.375 2.775 12.055l-0.080-0.198c0.64 3.264 1.572 6.152 2.797 8.878l-0.103-0.255c0.322 1.82 0.885 3.448 1.662 4.946l-0.045-0.095c-0.572-0.925-0.957-2.024-1.075-3.202l-0.003-0.032c0.539 1.078 0.539 2.156 1.078 3.234 3.188 6.612 6.597 12.265 10.462 17.565l-0.222-0.319c3.234 4.851-3.773-4.312 0 0 0.979 1.413 2.043 2.648 3.222 3.762l0.011 0.011c1.863 2.129 3.799 4.066 5.857 5.867l0.071 0.061c0.99 1.522 2.251 2.782 3.724 3.743l0.049 0.030c0.486 0.212 0.866 0.592 1.073 1.065l0.005 0.013c1.427 1.193 3.282 1.917 5.305 1.917 4.584 0 8.3-3.716 8.3-8.3s-3.716-8.3-8.3-8.3c-4.584 0-8.3 3.716-8.3 8.3 0 2.024 0.724 3.878 1.927 5.318l-0.011-0.013c2.367 2.514 5.241 4.523 8.46 5.868l0.163 0.060 8.084 4.851c0.539 0 3.773 2.156 4.312 2.156-1.029-0.449-1.916-0.991-2.718-1.635l0.023 0.018 3.234 1.617c6.467 2.156 12.935 3.773 19.402 5.389s-5.928-0.539 0 0h4.312c1.543 0.351 3.315 0.552 5.134 0.552 0.28 0 0.558-0.005 0.835-0.014l-0.040 0.001h818.122c2.548-0.588 5.511-0.975 8.546-1.076l0.077-0.002c-5.928 0-2.156 0.539 0 0 1.962-0.107 3.8-0.494 5.523-1.12l-0.133 0.042c3.762-0.745 7.014-1.676 10.152-2.841l-0.451 0.147c0.539-0.539 2.156-0.539 2.695-1.078l3.234-1.617c-3.234 1.617-3.773 2.156-1.078 0.539 5.979-2.774 11.108-5.83 15.883-9.34l-0.253 0.178c1.502-0.606 2.767-1.524 3.762-2.682l0.011-0.013c-0.539 0.539-1.617 1.078-2.156 1.617 0.854-0.586 1.57-1.302 2.138-2.128l0.018-0.028c3.304-2.312 6.144-4.981 8.561-8.003l0.062-0.081c2.051-1.881 3.833-4.006 5.314-6.34l0.076-0.128c-0.419 1.131-1.171 2.056-2.135 2.682l-0.021 0.013c0.985-0.638 1.737-1.564 2.144-2.657l0.012-0.037c1.078-1.078 1.617-2.695 2.695-3.773 1.617-2.695 2.695-4.851 4.312-7.545 0.542-1.644 1.274-3.073 2.189-4.361l-0.034 0.050c0-0.539 0.539-1.078 0.539-1.617 1.078-2.695 1.078-2.156-0.539 1.078 1.787-2.579 2.956-5.711 3.229-9.096l0.004-0.067c0.793-2.343 1.54-5.242 2.092-8.209l0.064-0.414c0.584-1.589 0.971-3.427 1.076-5.34l0.002-0.049c1.078-5.928-0.539 6.467 0 0-0.129-1.613-0.202-3.493-0.202-5.389s0.074-3.776 0.218-5.636l-0.015 0.246c0-13.841 11.22-25.061 25.061-25.061s25.061 11.22 25.061 25.061v0c0.001 0.195 0.002 0.426 0.002 0.658 0 65.612-46.618 120.335-108.539 132.855l-0.869 0.147c-9.97 1.072-21.536 1.684-33.245 1.684-2.334 0-4.662-0.024-6.984-0.073l0.347 0.006h-794.408c-0.112 0-0.245 0.001-0.378 0.001-46.933 0-88.2-24.258-111.947-60.92l-0.316-0.521c-13.192-20.834-21.022-46.198-21.022-73.391 0-0.346 0.001-0.692 0.004-1.037v0.053-427.385c-0.001-0.196-0.002-0.428-0.002-0.659 0-25.094 6.596-48.648 18.15-69.021l-0.363 0.695c15.79-27.338 40.046-48.284 69.135-59.508l0.929-0.315c14.195-4.821 30.545-7.603 47.546-7.603 1.474 0 2.944 0.021 4.408 0.063l-0.215-0.005h130.425c14.041 0.242 25.331 11.682 25.331 25.758 0 0.039 0 0.078 0 0.117v-0.006 286.181c-8.623-8.623-16.707-17.246-25.331-25.869h471.040c21.558 0 43.655-1.078 65.213 0h1.078c-8.623 8.623-17.246 17.246-25.331 25.869v-286.181c0-0.033 0-0.072 0-0.111 0-14.076 11.29-25.516 25.308-25.758h135.299c0.557-0.008 1.214-0.013 1.872-0.013 40.709 0 77.13 18.355 101.441 47.24l0.165 0.201c19.492 24.533 31.273 55.956 31.273 90.13 0 0.714-0.005 1.426-0.015 2.137l0.001-0.108v309.895c0 37.726 0.539 75.453 0 113.179v1.617c0 13.841-11.22 25.061-25.061 25.061s-25.061-11.22-25.061-25.061v0zM782.013 934.131l0.001 0.032c0.337 13.931 11.417 25.199 25.33 25.837l0.044-0.001c13.749-0.477 24.749-11.773 24.749-25.638 0-0.081 0-0.162-0.001-0.23v-153.049c0.001-0.081 0.001-0.162 0.001-0.242 0-13.865-11-25.162-24.793-25.639h-1.078c-21.558-1.078-43.655 0-65.213 0l-471.084 0.001c-13.749 0.477-24.749 11.773-24.749 25.638 0 0.081 0 0.162 0.001 0.23v153.068c0.073 13.877 11.004 25.185 24.792 25.862h1.078c21.558 0.539 43.655 0 65.213 0l471.101-0.002c13.727-0.675 24.658-11.983 24.731-25.867v0.012c0.001-0.081 0.001-0.162 0.001-0.242 0-13.865-11-25.162-24.793-25.639h-1.078c-21.558-1.078-43.655 0-65.213 0h-471.040c8.623 8.623 16.707 16.707 25.331 25.869v-153.061c-8.623 8.623-16.707 17.246-25.331 25.869h1.078c21.558 0.539 43.655 0 65.213 0h471.040c-8.623-8.623-17.246-17.246-25.331-25.869v153.061zM782.013 418.897v-400.438c0-18.324-0.539-37.187 0-55.512v-0.539c8.084 8.623 16.707 17.246 25.331 25.869h-471.040c-21.558 0-43.655 0.539-65.213 0h-1.078c8.623-8.623 16.707-17.246 25.331-25.869v400.438c0 18.324 1.078 37.187 0 55.512v0.539c-8.623-8.623-16.707-16.707-25.331-25.869h471.040c21.558 0 43.655-0.539 65.213 0h1.078c13.787 0.677 24.719 11.985 24.792 25.862v0.007c0.001 0.068 0.001 0.149 0.001 0.23 0 13.865-11 25.162-24.749 25.638l-0.044 0.001h-471.040c-21.558 0-43.655 1.078-65.213 0h-1.078c-13.793-0.478-24.793-11.774-24.793-25.639 0-0.081 0-0.162 0.001-0.242v0.012-400.438c0-18.324-0.539-37.187 0-55.512v-0.539c-0.001-0.068-0.001-0.149-0.001-0.23 0-13.865 11-25.162 24.749-25.638l0.044-0.001h471.040c21.558 0 43.655-1.078 65.213 0h1.078c13.793 0.478 24.793 11.774 24.793 25.639 0 0.081 0 0.162-0.001 0.242v-0.012 400.438c0 18.324 0.539 37.187 0 55.512v0.539c0.009 0.257 0.015 0.56 0.015 0.863 0 13.741-11.082 24.893-24.796 25.006h-0.011c-14.041-0.242-25.331-11.682-25.331-25.758 0-0.039 0-0.078 0-0.117v0.006zM197.255 393.027h598.232c28.025 0 55.512-0.539 83.537 0h1.078c14.287 0 25.869 11.582 25.869 25.869s-11.582 25.869-25.869 25.869h-598.771c-27.486 0-55.512 1.078-82.998 0h-1.078c-14.041-0.242-25.331-11.682-25.331-25.758 0-0.039 0-0.078 0-0.117v0.006c0.142-14.042 11.336-25.424 25.289-25.868l0.041-0.001zM797.103 573.036h82.998c13.995 0.446 25.188 11.827 25.33 25.856v0.014c-0.337 13.963-11.418 25.231-25.272 25.867l-0.058 0.002h-82.998c-14.041-0.242-25.331-11.682-25.331-25.758 0-0.039 0-0.078 0-0.117v0.006c0.142-14.042 11.336-25.424 25.289-25.868l0.041-0.001zM434.931 234.038h207.495c14.287 0 25.869 11.582 25.869 25.869s-11.582 25.869-25.869 25.869h-207.495c-14.287 0-25.869-11.582-25.869-25.869s11.582-25.869 25.869-25.869v0zM434.931 95.528h145.516c14.287 0 25.869 11.582 25.869 25.869s-11.582 25.869-25.869 25.869h-145.516c-14.287 0-25.869-11.582-25.869-25.869s11.582-25.869 25.869-25.869v0z" />
<glyph unicode="&#xe922;" glyph-name="run" horiz-adv-x="853" d="M0 960l853.333-512-853.333-512z" />
<glyph unicode="&#xe923;" glyph-name="save" d="M972.231-64h-919.893c-0.034 0-0.074 0-0.114 0-28.843 0-52.224 23.381-52.224 52.224 0 0.040 0 0.080 0 0.12v-0.006 919.893c0.161 28.626 23.404 51.77 52.053 51.77 0.1 0 0.2 0 0.301-0.001h291.256v-331.093h336.782v331.093h145.636l197.973-203.662v-768c0-0.085 0.001-0.185 0.001-0.285 0-28.649-23.144-51.892-51.754-52.052h-0.015zM72.818 8.818h878.364v717.938l-155.876 160.427h-42.098v-331.093h-482.418v331.093h-197.973v-878.364zM583.68 713.671v209.92h-72.818v-209.92h72.818zM712.249 887.182v72.818h-410.169v-72.818h410.169zM512 99.84c-0.084 0-0.184 0-0.284 0-97.556 0-176.64 79.084-176.64 176.64s79.084 176.64 176.64 176.64c97.456 0 176.478-78.922 176.64-176.34v-0.015c-0.32-97.384-79.017-176.281-176.294-176.924h-0.061zM512 380.302c-0.084 0-0.184 0-0.284 0-57.339 0-103.822-46.483-103.822-103.822s46.483-103.822 103.822-103.822c57.339 0 103.822 46.483 103.822 103.822 0 0.1 0 0.2 0 0.299v-0.015c-0.289 57.066-46.472 103.249-103.51 103.538h-0.028z" />
<glyph unicode="&#xe924;" glyph-name="corres-send" horiz-adv-x="2253" d="M832.171 960c-80.713-0.268-146.118-65.433-146.773-146.028v-731.881c0.656-80.658 66.060-145.823 146.748-146.091h1273.882c80.713 0.268 146.118 65.433 146.773 146.028v731.881c-0.656 80.658-66.060 145.823-146.748 146.091h-1273.882zM832.171 862.379h1273.856c0.455 0.016 0.99 0.025 1.527 0.025 25.939 0 46.967-21.028 46.967-46.967 0-0.537-0.009-1.072-0.027-1.604l0.002 0.078v-731.819c0.008-0.329 0.013-0.717 0.013-1.105 0-26.166-21.211-47.377-47.377-47.377-0.389 0-0.776 0.005-1.162 0.014l0.057-0.001h-1273.856c-0.329-0.008-0.717-0.013-1.105-0.013-26.166 0-47.377 21.211-47.377 47.377 0 0.389 0.005 0.776 0.014 1.162l-0.001-0.057v731.819c-0.016 0.455-0.025 0.99-0.025 1.527 0 25.939 21.028 46.967 46.967 46.967 0.537 0 1.072-0.009 1.604-0.027l-0.078 0.002zM49.152 789.333c-26.957 0-48.811-21.853-48.811-48.811s21.853-48.811 48.811-48.811v0h489.472c26.957 0 48.811 21.853 48.811 48.811s-21.853 48.811-48.811 48.811v0h-489.472zM976.896 765.44c-26.233-0.967-47.133-22.467-47.133-48.848 0-0.587 0.010-1.172 0.031-1.754l-0.002 0.084c0.491-13.316 6.438-25.153 15.657-33.411l0.045-0.039 240.981-225.963-241.664-240.299c-9.47-8.902-15.368-21.509-15.368-35.494 0-12.969 5.072-24.753 13.34-33.477l-0.021 0.022c9.033-9.477 21.753-15.37 35.85-15.37 13.073 0 24.963 5.069 33.81 13.348l-0.028-0.026 1.365 1.365 244.395 243.029 98.304-92.843c29.256-27.29 68.65-44.044 111.957-44.044s82.701 16.754 112.054 44.133l-0.097-0.089 98.987 93.525 245.077-243.712c8.95-9.112 21.402-14.759 35.172-14.759 13.084 0 24.977 5.098 33.802 13.416l-0.025-0.023c9.477 8.759 15.391 21.254 15.391 35.13 0 13.211-5.361 25.169-14.025 33.819l-0.001 0.001c-0.683 0.683-0.683 1.365-1.365 2.048l-241.664 240.299 240.981 225.963c9.235 8.887 14.972 21.352 14.972 35.157 0 26.932-21.832 48.764-48.764 48.764-13.126 0-25.041-5.186-33.808-13.622l0.016 0.015-411.648-385.024c-12.514-8.65-28.011-13.818-44.715-13.818s-32.201 5.167-44.98 13.991l0.265-0.173-410.965 385.024c-8.549 8.491-20.329 13.739-33.335 13.739-1.002 0-1.996-0.031-2.982-0.092l0.135 0.007zM146.773 496.469c-26.769 0-48.469-21.7-48.469-48.469s21.7-48.469 48.469-48.469h391.851c26.769 0 48.469 21.7 48.469 48.469s-21.7 48.469-48.469 48.469h-391.851zM244.395 204.288c-26.957 0-48.811-21.853-48.811-48.811s21.853-48.811 48.811-48.811v0h294.229c26.957 0 48.811 21.853 48.811 48.811s-21.853 48.811-48.811 48.811v0h-294.229z" />
<glyph unicode="&#xe925;" glyph-name="scan" horiz-adv-x="1358" d="M1320.248 311.763h-107.364c-0.040 0-0.088 0-0.135 0-20.599 0-37.319-16.604-37.508-37.158v-11.148h-855.062v11.13c-0.189 20.572-16.909 37.176-37.508 37.176-0.055 0-0.111 0-0.166 0h-97.939l1047.151 578.56c11.738 6.365 19.575 18.593 19.575 32.652 0 6.472-1.661 12.555-4.579 17.849l0.097-0.191c-6.562 11.671-18.866 19.426-32.981 19.426-6.552 0-12.713-1.671-18.082-4.61l0.196 0.099-1175.24-649.35c-9.054-5.292-15.791-13.715-18.781-23.752l-0.074-0.29c0-2.003-1.892-173.19-1.892-173.19 0.491-59.61 48.928-107.745 108.607-107.745 0.236 0 0.472 0.001 0.707 0.002h60.224v-28.049c0.512-20.404 17.174-36.75 37.654-36.75s37.142 16.345 37.653 36.702l0.001 0.047v29.83h868.174v-29.83c0.512-20.417 17.184-36.772 37.677-36.772s37.165 16.355 37.676 36.724l0.001 0.047v29.83h60.282c0.179-0.001 0.391-0.002 0.603-0.002 59.762 0 108.253 48.258 108.631 107.931v163.653c-0.201 20.575-16.927 37.176-37.53 37.176-0.024 0-0.048 0-0.072 0h0.004zM1282.605 108.967c-0.1-18.464-15.091-33.393-33.569-33.393-0.118 0-0.235 0.001-0.352 0.002h-1137.512c-0.106-0.001-0.231-0.002-0.357-0.002-18.473 0-33.459 14.932-33.547 33.385v126.672h167.602v-11.13c0.176-20.685 16.98-37.386 37.686-37.398h930.372c20.708 0.012 37.511 16.713 37.688 37.382v11.147h32.033v-126.664z" />
<glyph unicode="&#xe926;" glyph-name="settings" horiz-adv-x="1025" d="M527.36-64h-31.147l-15.36 4.693c-38.267 10.532-68.791 37.336-84.158 72.308l-0.322 0.823c-6.164 13.203-13.139 24.564-21.221 35.026l0.315-0.424c-6.193 11.25-17.411 19.073-30.548 20.465l-0.172 0.015c-3.42 0.381-7.384 0.599-11.399 0.599-15.788 0-30.791-3.361-44.332-9.408l0.691 0.276c-15.014-6.851-32.564-10.844-51.047-10.844-69.349 0-125.568 56.219-125.568 125.568 0 17.547 3.599 34.254 10.1 49.422l-0.312-0.818c6.466 13.692 10.24 29.742 10.24 46.674 0 0.091 0 0.182 0 0.273v-0.014c0.106 1.125 0.167 2.433 0.167 3.755 0 7.826-2.122 15.156-5.821 21.447l0.108-0.199c-12.243 16.123-28.579 28.545-47.475 35.804l-0.739 0.249c-46.623 19.465-78.793 64.686-78.793 117.422 0 10.8 1.349 21.285 3.888 31.295l-0.189-0.877c10.719 38.816 38.346 69.623 74.249 84.469l0.845 0.309c13.705 5.188 25.472 12.551 35.488 21.785l-0.075-0.068c8.513 6.359 14.821 15.253 17.833 25.553l0.087 0.346c0.566 4.217 0.888 9.092 0.888 14.042 0 16.225-3.469 31.64-9.705 45.543l0.283-0.705c-6.591 14.675-10.43 31.808-10.43 49.838 0 14.754 2.571 28.907 7.289 42.037l-0.272-0.867c11 33.175 35.2 59.366 66.213 72.79l0.774 0.298c15.073 6.784 32.675 10.737 51.2 10.737s36.127-3.952 52.008-11.060l-0.808 0.323c12.318-5.719 26.738-9.056 41.937-9.056 1.157 0 2.309 0.019 3.456 0.058l-0.167-0.004c0.6-0.033 1.302-0.052 2.009-0.052 7.985 0 15.412 2.392 21.602 6.499l-0.145-0.090c16.138 12.031 28.519 28.274 35.603 47.111l0.237 0.718c8.486 20.541 21.446 37.748 37.74 51.016l0.233 0.184c21.124 17.899 48.687 28.781 78.791 28.781 11.591 0 22.805-1.613 33.43-4.628l-0.862 0.209c38.708-10.989 69.375-38.703 84.17-74.626l0.31-0.851c5.359-13.602 12.715-25.289 21.844-35.336l-0.084 0.094c6.739-9.281 16.75-15.83 28.31-17.963l0.277-0.042c3.372-0.368 7.283-0.577 11.242-0.577 16.168 0 31.52 3.497 45.34 9.775l-0.689-0.28c14.716 6.67 31.91 10.557 50.011 10.557 15.122 0 29.61-2.713 43.005-7.678l-0.856 0.278c32.818-11.146 58.738-35.116 72.231-65.788l0.303-0.772c6.873-15.058 10.88-32.661 10.88-51.2s-4.007-36.142-11.201-51.99l0.321 0.79c-5.932-13.085-9.39-28.373-9.39-44.468 0-0.282 0.001-0.563 0.003-0.844v0.043c-0.030-0.609-0.048-1.322-0.048-2.039 0-8.153 2.237-15.783 6.131-22.31l-0.11 0.2c12.555-16.778 29.515-29.626 49.172-36.92l0.748-0.243c24.836-9.758 44.899-27.188 57.734-49.33l0.293-0.548c4.702-8.731 9.176-19.055 12.798-29.771l0.429-1.461c1.28-3.712 2.987-7.467 4.267-11.179l1.28-2.645 0.853-2.944c1.018-5.221 1.601-11.225 1.601-17.365s-0.583-12.144-1.696-17.96l0.095 0.595-0.853-3.285-1.28-4.267c-0.321-1.216-0.759-2.281-1.316-3.269l0.036 0.069c-9.779-41.889-39.343-75.24-78.067-90.118l-0.867-0.293c-14.18-5.787-26.255-14.043-36.241-24.336l-0.026-0.026c-7.481-5.909-12.64-14.471-14.056-24.245l-0.024-0.203c-0.433-3.613-0.68-7.797-0.68-12.038 0-15.723 3.393-30.654 9.486-44.101l-0.273 0.672c6.658-14.749 10.537-31.976 10.537-50.109 0-5.953-0.418-11.808-1.226-17.537l0.076 0.659c-4.355-40.075-27.756-73.877-60.836-92.53l-0.604-0.313c-17.92-10.144-39.356-16.122-62.188-16.122-18.233 0-35.576 3.812-51.275 10.684l0.823-0.321c-13.121 5.906-28.442 9.346-44.567 9.346-0.232 0-0.464-0.001-0.695-0.002h0.036c-0.929 0.077-2.011 0.12-3.102 0.12-8.398 0-16.193-2.581-22.635-6.993l0.137 0.089c-15.952-12.585-28.174-29.233-35.171-48.395l-0.242-0.757c-7.557-17.841-18.564-32.899-32.287-44.936l-0.139-0.12c-17.743-14.985-39.295-26.045-62.979-31.544l-1.021-0.2zM506.88 2.944h11.52c12.471 2.849 23.378 8.299 32.572 15.773l-0.145-0.115c6.296 5.223 11.243 11.854 14.385 19.423l0.122 0.332c12.040 31.282 31.536 57.421 56.375 77.113l0.372 0.284c17.208 12.843 38.896 20.563 62.386 20.563 1.468 0 2.929-0.030 4.382-0.090l-0.208 0.007c0.597 0.007 1.302 0.012 2.008 0.012 25.857 0 50.399-5.63 72.466-15.732l-1.087 0.446c6.807-2.805 14.709-4.434 22.992-4.434 10.979 0 21.289 2.862 30.226 7.88l-0.311-0.161c16.843 10.938 27.827 29.658 27.827 50.943 0 8.522-1.761 16.633-4.938 23.988l0.151-0.392c-9.342 21.253-14.779 46.028-14.779 72.073 0 5.629 0.254 11.2 0.751 16.699l-0.052-0.709c3.026 26.159 15.21 49.019 33.211 65.686l0.069 0.063c16.44 16.953 36.35 30.438 58.596 39.322l1.137 0.401c19.725 7.547 34.369 24.351 38.755 44.95l0.072 0.405c0.853 2.859 1.707 5.333 2.133 7.467v4.267c-1.28 3.2-2.133 6.229-3.413 9.429-3.003 8.674-6.029 15.805-9.46 22.7l0.5-1.11c-5.511 9.388-13.927 16.562-23.997 20.373l-0.323 0.107c-32.707 12.368-59.824 33.272-79.448 60.017l-0.339 0.484c-11.505 16.968-18.367 37.896-18.367 60.428 0 0.746 0.008 1.49 0.022 2.232l-0.002-0.111c0 0.137-0.001 0.299-0.001 0.461 0 26.465 5.655 51.609 15.822 74.29l-0.461-1.151c2.879 6.758 4.552 14.619 4.552 22.871 0 9.003-1.992 17.542-5.559 25.198l0.154-0.368c-5.795 14.263-17.316 25.171-31.633 30.015l-0.367 0.108c-6.116 2.44-13.204 3.855-20.622 3.855-8.284 0-16.156-1.764-23.26-4.938l0.362 0.145c-21.169-9.586-45.901-15.172-71.938-15.172-6.069 0-12.068 0.304-17.981 0.896l0.745-0.060c-29.133 3.683-54.271 18.386-71.518 39.729l-0.162 0.207c-14.849 15.808-26.723 34.609-34.602 55.377l-0.385 1.156c-7.689 16.528-21.901 28.926-39.237 34.022l-0.443 0.112c-4.358 1.244-9.363 1.959-14.536 1.959-14.115 0-26.987-5.326-36.714-14.078l0.050 0.044c-7.871-6.174-14.006-14.215-17.782-23.469l-0.138-0.381c-12.312-31.333-32.428-57.352-58-76.475l-0.454-0.325c-16.868-11.695-37.77-18.683-60.305-18.683-0.999 0-1.995 0.014-2.988 0.041l0.146-0.003c-0.604-0.007-1.318-0.012-2.032-0.012-25.982 0-50.66 5.581-72.901 15.61l1.12-0.452c-6.815 2.855-14.734 4.514-23.041 4.514-8.958 0-17.466-1.929-25.13-5.395l0.384 0.155c-14.152-6.122-24.854-17.94-29.342-32.485l-0.098-0.368c-2.472-6.1-3.907-13.176-3.907-20.587 0-8.191 1.752-15.972 4.903-22.99l-0.143 0.356c9.467-20.687 14.986-44.875 14.986-70.352 0-8.672-0.639-17.195-1.874-25.524l0.115 0.942c-4.671-27.059-18.728-50.216-38.632-66.491l-0.195-0.155c-15.984-14.61-34.819-26.425-55.53-34.485l-1.216-0.417c-16.689-7.489-29.174-21.805-34.032-39.296l-0.101-0.427c-1.132-4.204-1.782-9.030-1.782-14.008 0-14.305 5.37-27.356 14.204-37.247l-0.048 0.055c6.042-7.682 13.971-13.62 23.097-17.154l0.369-0.126c31.231-12.288 57.215-32.206 76.486-57.511l0.314-0.43c11.805-16.815 18.865-37.707 18.865-60.249 0-1.544-0.033-3.081-0.099-4.609l0.007 0.218c0-0.112 0-0.245 0-0.379 0-26.391-5.655-51.461-15.82-74.065l0.459 1.142c-2.834-6.602-4.482-14.286-4.482-22.354 0-24.117 14.724-44.795 35.672-53.536l0.383-0.142c6.569-2.756 14.204-4.358 22.213-4.358 8.805 0 17.159 1.936 24.657 5.405l-0.364-0.151c20.738 9.232 44.936 14.607 70.388 14.607 6.315 0 12.554-0.331 18.698-0.976l-0.767 0.065c32.249-3.91 59.758-21.435 76.987-46.563l0.24-0.371c10.835-13.79 20.268-29.492 27.619-46.312l0.541-1.39c8.067-17.963 23.658-31.315 42.65-36.171l0.443-0.096zM512 238.464c-0.063 0-0.138 0-0.213 0-115.594 0-209.301 93.707-209.301 209.301 0 115.519 93.586 209.18 209.076 209.301h0.012c0 0 0 0 0 0 115.55 0 209.25-93.55 209.493-209.043v-0.023c0 0 0 0 0 0 0-115.314-93.359-208.823-208.617-209.066h-0.876zM512 589.696v0c-0.074 0-0.162 0-0.25 0-78.351 0-141.867-63.516-141.867-141.867 0-39.535 16.172-75.292 42.261-101.019l0.016-0.016c25.355-25.309 60.358-40.961 99.017-40.961 0.139 0 0.279 0 0.418 0.001h0.832c78.276 0.339 141.606 63.849 141.653 142.161v0.005c-0.145 78.419-63.665 141.953-142.064 142.123h-0.016v-0.384z" />
<glyph unicode="&#xe927;" glyph-name="bell" horiz-adv-x="983" d="M491.52 960c-210.365-0.975-380.522-171.734-380.522-382.235 0-0.621 0.001-1.241 0.004-1.861v0.096-287.99c-61.859 0-112.005-50.146-112.005-112.005s50.146-112.005 112.005-112.005v0h269.517v-16.015c0-61.304 49.697-111.002 111.002-111.002s111.002 49.697 111.002 111.002v16.015h269.517c61.859 0 112.005 50.146 112.005 112.005s-50.146 112.005-112.005 112.005v287.99c0.003 0.524 0.004 1.144 0.004 1.765 0 210.501-170.157 381.26-380.429 382.235h-0.093zM491.52 896.020c175.112-0.063 317.043-142.033 317.043-317.153 0-1.008-0.005-2.015-0.014-3.021l0.001 0.154v-287.99h-634.061v287.99c-0.008 0.852-0.013 1.859-0.013 2.867 0 175.12 141.932 317.090 317.037 317.153h0.006zM111.002 224.031h761.037c26.512 0 48.005-21.493 48.005-48.005s-21.493-48.005-48.005-48.005h-761.037c-26.512 0-48.005 21.493-48.005 48.005s21.493 48.005 48.005 48.005v0zM444.006 64.041h95.027v-16.015c0-26.241-21.273-47.514-47.514-47.514s-47.514 21.273-47.514 47.514v0 15.974z" />
<glyph unicode="&#xe928;" glyph-name="not-started" horiz-adv-x="802" d="M800.194 388.94c-18.13 191.509-166.995 343.264-355.544 365.718l-1.923 0.186v79.042c0 11.772-9.543 21.315-21.315 21.315v0h-40.853c-11.702-0.172-21.142-9.613-21.315-21.298v-79.058c-203.563-25.121-359.606-196.997-359.606-405.318 0-16.153 0.938-32.088 2.763-47.751l-0.181 1.905c18.913-206.702 191.418-367.358 401.446-367.358 13.755 0 27.349 0.689 40.749 2.035l-1.689-0.137c203.776 25.378 359.908 197.507 359.908 406.103 0 15.718-0.887 31.23-2.612 46.487l0.172-1.869zM401.429-22.258c-2.644-0.068-5.758-0.107-8.88-0.107-203.555 0-368.569 165.014-368.569 368.569s165.014 368.569 368.569 368.569c203.205 0 368.002-164.448 368.567-367.52v-0.054c0.030-1.737 0.047-3.785 0.047-5.838 0-199.46-160.589-361.412-359.526-363.617l-0.208-0.002zM401.429 262.827c0.699-0.021 1.522-0.033 2.347-0.033 45.935 0 83.172 37.237 83.172 83.172s-37.237 83.172-83.172 83.172c-45.935 0-83.172-37.237-83.172-83.172 0-13.291 3.117-25.853 8.661-36.996l-0.218 0.483-142.543-146.984c-3.905-3.845-6.325-9.189-6.325-15.098s2.42-11.253 6.323-15.095l0.003-0.003c3.762-3.904 9.036-6.328 14.876-6.328s11.114 2.425 14.87 6.322l0.006 0.006 141.211 145.651c12.019-9.372 27.323-15.045 43.95-15.098h0.012zM361.464 345.866c-0.002 0.133-0.003 0.29-0.003 0.447 0 21.827 17.694 39.521 39.521 39.521 0.157 0 0.314-0.001 0.47-0.003h-0.024c22.685 0 41.075-18.39 41.075-41.075s-18.39-41.075-41.075-41.075v0c-22.168 1.605-39.593 19.802-39.965 42.149v0.037zM744.243 671.806c3.66-3.41 8.585-5.503 14-5.503 6.071 0 11.528 2.632 15.291 6.816l0.017 0.019c3.508 3.775 5.661 8.852 5.661 14.432s-2.153 10.657-5.673 14.445l0.012-0.013-66.165 67.941c-3.796 3.442-8.859 5.549-14.413 5.549-6.005 0-11.436-2.463-15.335-6.434l-0.003-0.003c-3.313-3.935-5.325-9.059-5.325-14.654s2.013-10.719 5.354-14.689l-0.028 0.035zM423.632 642.942c-0.319 0.017-0.692 0.027-1.067 0.027-11.59 0-21.001-9.327-21.136-20.885v-0.901c-0.004-0.156-0.007-0.339-0.007-0.523 0-10.413 7.965-18.966 18.135-19.898l0.078-0.006c129.87-13.486 230.266-122.35 230.266-254.663 0-127.432-93.126-233.114-215.035-252.702l-1.465-0.194c-9.095-1.17-19.615-1.838-30.292-1.838-43.741 0-84.863 11.209-120.652 30.911l1.296-0.654c-2.939 1.684-6.46 2.676-10.214 2.676-8.125 0-15.163-4.652-18.596-11.439l-0.055-0.119c-1.522-2.901-2.415-6.339-2.415-9.985 0-8.015 4.316-15.022 10.75-18.824l0.102-0.056c39.644-22.414 87.056-35.621 137.553-35.621 11.46 0 22.76 0.68 33.864 2.002l-1.343-0.13c147.327 19.779 259.745 144.688 259.745 295.853 0 154.622-117.619 281.774-268.266 296.864l-1.249 0.101zM273.984 812.128v0c11.819 0.224 21.315 9.859 21.315 21.711 0 0.017 0 0.034 0 0.051v-0.003 40.853c-0.006 0.252-0.009 0.549-0.009 0.846 0 22.664 18.237 41.068 40.837 41.339h129.691c22.888-0.375 41.298-19.016 41.298-41.958 0-0.080 0-0.16-0.001-0.24v0.012-40.853c-0.003-0.134-0.005-0.291-0.005-0.449 0-11.617 9.294-21.064 20.853-21.31h0.023c11.819 0.224 21.315 9.859 21.315 21.711 0 0.017 0 0.034 0 0.051v-0.003 40.853c0.003 0.265 0.005 0.579 0.005 0.893 0 46.286-37.272 83.867-83.44 84.366h-129.712c-46.022-0.747-83.044-38.231-83.044-84.361 0-0.316 0.002-0.632 0.005-0.947v0.048-40.853c-0.003-0.134-0.005-0.291-0.005-0.449 0-11.617 9.294-21.064 20.853-21.31h0.023z" />
<glyph unicode="&#xe929;" glyph-name="in-progress" d="M512-46.933c273.344 0 494.933 221.589 494.933 494.933s-221.589 494.933-494.933 494.933c-273.344 0-494.933-221.589-494.933-494.933v0c0.194-273.266 221.668-494.739 494.915-494.933h0.018zM512-64c-282.77 0-512 229.23-512 512s229.23 512 512 512c282.77 0 512-229.23 512-512v0c0-282.77-229.23-512-512-512v0zM512 891.733c245.067 0 443.733-198.666 443.733-443.733v0c0.001-0.352 0.002-0.769 0.002-1.186 0-48.589-7.911-95.331-22.516-139.007l0.896 3.091-422.116 137.102v443.733z" />
<glyph unicode="&#xe92a;" glyph-name="with-param" horiz-adv-x="741" d="M172.43 960l568.889-341.333-568.889-341.333zM166.286 105.529h-165.604v-168.391h165.604v168.391zM453.916 105.529h-165.604v-168.391h165.604v168.391zM741.547 105.529h-165.604v-168.391h165.376v168.391z" />
<glyph unicode="&#xe92b;" glyph-name="no-access" horiz-adv-x="816" d="M667.322 632.864v179.245c-0.144 81.709-66.416 147.891-148.144 147.891-0.070 0-0.14 0-0.211 0h-222.369c-0.056 0-0.123 0-0.19 0-81.713 0-147.965-66.192-148.063-147.882v-179.254c-82.855-6.568-147.678-75.142-148.253-158.98v-377.126c0.319-88.903 72.463-160.85 161.41-160.85 0.185 0 0.37 0 0.555 0.001h491.491c0.184-0.001 0.401-0.001 0.619-0.001 88.82 0 160.885 71.741 161.409 160.438v376.030c0 0.129 0.001 0.281 0.001 0.433 0 84.337-65.038 153.483-147.695 160.018l-0.559 0.036zM296.598 886.055h222.38c0.040 0 0.088 0 0.136 0 40.866 0 74.004-33.090 74.081-73.938v-179.252h-370.724v179.245c0.031 40.846 33.15 73.946 74 73.946 0.045 0 0.089 0 0.134 0h-0.007zM741.448 96.759v0c0.473-3.19 0.743-6.871 0.743-10.616 0-38.357-28.336-70.095-65.217-75.424l-0.41-0.049c-2.691-0.42-5.882-0.713-9.123-0.813l-0.121-0.003h-518.978c-48.572 0-74.127 39.238-74.127 86.904v375.618c0.454 47.895 39.386 86.546 87.344 86.546 0.291 0 0.582-0.001 0.873-0.004h491.114c0.131 0.001 0.285 0.001 0.44 0.001 47.982 0 86.939-38.635 87.461-86.493v-375.667zM407.788 448c-60.989-0.348-110.297-49.869-110.297-110.907 0-47.738 30.16-88.431 72.465-104.065l0.768-0.249v-74.942c0-20.47 16.594-37.063 37.063-37.063s37.063 16.594 37.063 37.063v0 74.942c43.117 15.853 73.317 56.566 73.317 104.331 0 61.064-49.357 110.6-110.353 110.89h-0.028zM407.788 300.018c-20.38 0.052-36.882 16.585-36.882 36.973 0 20.419 16.553 36.973 36.973 36.973s36.973-16.553 36.973-36.973v0c-0.031-20.426-16.597-36.973-37.027-36.973-0.013 0-0.025 0-0.038 0h0.002z" />
<glyph unicode="&#x1f333;" glyph-name="archive" horiz-adv-x="1240" d="M1151.192 550.4h10.779v0.014c0.001-0.095 0.002-0.189 0.002-0.284 0-3.010-0.595-5.881-1.618-8.353zM1161.971 612.379v117.491c-0.059 14.004-11.426 25.334-25.438 25.334-0.152 0-0.303-0.001-0.454-0.004h-51.716v77.069c-0.059 14.004-11.426 25.334-25.438 25.334-0.152 0-0.303-0.001-0.454-0.004h-51.177v77.069c-0.242 14.041-11.682 25.331-25.758 25.331-0.039 0-0.078 0-0.117 0h-232.819c-6.965-0.078-13.244-2.949-17.783-7.543l-0.002-0.003-70.063-68.985h-402.594c-14.287 0-25.869-11.582-25.869-25.869v0-76.531h-51.739c-14.202-0.209-25.66-11.667-25.869-25.85v-76.551h-51.739c-14.041-0.242-25.331-11.682-25.331-25.758 0-0.039 0-0.078 0-0.117v0.006-46.888l-77.608-69.524v-600.387h1239.579v599.309zM284.025 832.269h387.503c7.036 0.121 13.434 2.754 18.359 7.036l-0.035-0.030 69.524 69.524h196.177v-51.2h-129.347c-0.045 0-0.099 0-0.152 0-7.1 0-13.526-2.884-18.171-7.545l-0.001-0.001-69.524-68.985h-454.333v51.2zM206.417 729.869h542.181c7.051 0.018 13.478 2.673 18.351 7.030l-0.027-0.023 70.063 69.524h195.638v-51.2h-128.808c-0.045 0-0.099 0-0.152 0-7.1 0-13.526-2.884-18.171-7.545l-0.001-0.001-70.063-68.985h-609.011v51.2zM128.808 576.269v51.2h697.398c7.051 0.018 13.478 2.673 18.351 7.030l-0.027-0.023 70.063 69.524h195.638v-127.731h-981.423zM1187.84-12.8h-1136.101v512h1136.101v-512zM542.181 110.619c-46.675 26.622-77.632 76.068-77.632 132.744 0 66.649 42.809 123.299 102.431 143.953l1.070 0.322v-16.168l77.608 51.2-77.608 51.2v-32.337c-89.784-22.724-155.163-102.8-155.163-198.146 0-85.792 52.933-159.221 127.921-189.409l1.372-0.488v57.128zM671.528 441.533v-53.895c60.397-21.448 102.869-78.101 102.869-144.674 0-75.966-55.303-139.016-127.845-151.085l-0.894-0.123v23.714l-77.608-51.2 51.739-34.493 25.869-16.707v26.947c101.672 13.048 179.447 99.054 179.447 203.225 0 94.905-64.554 174.733-152.149 197.969l-1.429 0.322z" />
</font>
</defs>
</svg>
